<svg xmlns="http://www.w3.org/2000/svg" width="278" height="119" fill="none"><g fill="currentColor" clip-path="url(#a)"><path d="M168.69 74.23c7.2 2.73 10.3 14.17 4.24 18.94-.81.7-.26 1.18.48 1.48 9.49 3.4 9.1 18.35 0 22.03-8.5 3.54-20.43 1.89-29.58.97-2.49 0-2.81-2.71-2.94-4.68-.58-11.84-.69-24.1.23-35.85.06-.77.16-1.87.53-2.37 2.49-2.19 21.33-2.42 26.91-.56l.13.05zm-13.11 8.59c-.09 1.16 0 4.9-.03 5.75.03.36.34.4.7.43 3.52.32 6.39-2.38 4.2-5.38-.46-.59-1.13-1.05-1.84-1.17-.62-.02-2.47.16-2.98.34l-.04.04zm5.66 17.22c-1.18-.33-3.99.09-5.04-.03-.56-.02-.2.87-.3 1.98.06 1.28-.13 3.17.08 4.18.06.05.15.07.29.07 2.05-.03 6.47.68 6.97-2.4.18-1.15 0-2.41-.98-3.16-.4-.25-.79-.45-.94-.59l-.07-.06zM234.92 2.11c1.07.65 2.27 1.38 3.53 1.99 11.44 5.65 17.37-3.29 26.24-1.28 1.38.31 2.57 1.28 3.1 2.6 2.03 4.77-1.47 10.69-.97 15.88.52 6.23 6.56 9.95 9.68 14.8 3.73 7.32-4.27 9.12-9.94 9.46-5.2 0-9.38 1.69-11.59 6.53-.87 1.9-1.76.91-3.13.4-1.91-.77-4.13-.47-6.24-.59-1.13-.04-2.19-.51-2.44-1.71-1.69-9 2.34-26.89-5.07-31.39-2.54-1.68-5.89-1.39-8.84-1.2-1.37.07-2.84.19-3.39-.54-.24-.28-.36-.67-.43-1.14-.97-10.06-2.36-20.41 9.34-13.9l.14.08zM166.16 23.39c9.31 4.02 11.87 19.22 2.73 24.86-1.91 1.72.24 3.64 1.25 5.55 1.02 1.66 1.84 2.78 2.98 4.46 3.76 5.87 6.71 9.24-3.27 8.97-1.73.01-3.81.01-5.39-.02-1.25 0-2.18-.82-2.7-1.92-2.17-4.23-3.86-9-6.35-12.86-.37-.57-.89-.97-.99-.02-.15 1.55-.08 3.92 0 5.7.9 10.23.55 9.45-8.11 9.12-4.25-.16-6.04-.46-6.04-5.17-.3-10.96-.86-21.94-.57-32.91.05-1.6-.02-3.81.89-5.13 1.81-2.22 5.25-1.32 7.78-1.66 5.68-.38 12.67-.97 17.62.96zm-8.25 9.87c-.83-.17-2.29.02-3.27.02-.09.02-.14.06-.16.13-.03.77 0 1.56 0 2.79v5.1c.06.15.13.16.34.17 1.24-.03 3.26.22 4.21-.68 2.18-1.87 1.79-6.34-.98-7.49l-.15-.05zM124.32 73.79c5.26 12.86 9.93 27.3 13.41 41.07.42 3.01-2.84 3.04-4.98 3.11-2.25.18-5.13.49-7.28.21-2.37-.29-2.57-3.55-3.27-5.32-.24-.73-.5-1.18-1.26-1.2-1.9-.04-8.48-.04-10.6-.04-2.66.12-2.09 4.2-3.7 5.73-1 1.17-2.74.89-4.77.95-3.44-.08-7.03-.02-8.95-1.38-.74-.68-.31-2.09.05-3.01 5-13.05 8.09-27.62 15.1-39.85.51-.82 1.03-1.11 1.86-1.11 2.36 0 8.33-.13 11.68.03 1.47.1 2.23.08 2.66.7l.07.1zm-11.7 27.7c1.04.07 4.21.02 4.89.02.43-.03.8-.42.8-.8-.15-3.07-1.93-6.14-2.14-9.18 0-.39-.33-1.42-.64-.63-.25 1.5-1.04 3.37-1.54 4.82-.4 1.67-1.11 4.18-1.4 5.74zM208.36 22.55c4.71 9.59 6.91 21.43 10.69 31.41.82 1.55.96 2.77 1.12 4.39.58 2.67 3.72 7.88-1.11 8.16-2.82-.02-5.6.61-8.43.38-1.59-.22-2.17-1.79-2.67-3.21-.51-1.15-.55-2.55-1.64-3.07-2.11-.26-8.05-.07-10.54-.14-.71 0-1.19.11-1.46.91-.69 1.62-.8 4.21-2.47 5.26-1.97.86-5.05-.12-7.33-.03-2.46.17-5.32-.24-4.86-3.46 3.66-12.71 7.07-26.87 11.94-39.49.36-.82.7-1.37 1.37-1.68 2.57-1.21 10.93-.86 14.12-.14.46.11.87.29 1.19.63l.09.1zM198.02 50.5c1.45.15 3.61.3 5.03-.13.19-.15.3-.32.25-.59-.38-1.45-.84-3.18-1.23-4.88-.27-.65-1.15-6.09-1.89-4.93-.79 3.15-1.84 6.4-2.54 9.58-.04.31-.06.78.26.9l.13.05z"/><path d="M203.55 73.36c5.37 1.81 11.74.84 10.06 8.64-.21 2.19-.51 4.54-3.07 4.02-3.76-.7-7.81-3.29-11.88-2.41-1.35.28-2.35 1.76-1.62 3.04.58 1.11 2.16 1.53 3.55 1.92 9.49 2.73 18.36 5.34 17.39 17.13-2.02 13.08-18.56 15.95-29.34 10.98-2.12-.95-5.12-2.09-6.45-3.87-1.34-1.89-.2-4.03.83-7.26.39-1.1.93-2.6 2.24-2.67 3.25-.07 7.79 5.65 12.53 4.83 4.04-.32 4.78-4.02.73-5.35-2.25-.71-4.78-.89-7.17-1.87-20.69-7.85-7.8-32.27 12.01-27.17l.2.05zM48.45 16.54c-2.14 1.05-4.77-.18-7.33.34-2.33.67-4.48 1.89-5.68 3.99-2.35 4.64-3.71 9.74-5.64 14.6-.49 1.36-1.59 2.28-2.95 2.7-2.98 1.02-5.8 2.65-8.34 4.37-1.09.78-2.36.91-3.63.53-5.24-1.28-18.82-1.03-13.79-9.72 1.54-2.26 4.04-4.07 5.76-6.24 1.61-2.02 2.73-4.87 3.12-7.41 1.04-5.31-1.75-11.82 1.8-16.43 4.95-3.49 12.17 4.09 17.52 4.14 6.59.6 12.89-7.27 18.35-4.7 3.72 2.02 2.39 6.76 1.72 10.17-.32 1.15-.13 2.7-.81 3.58l-.09.09zM100.12 34.94c-2.42 1.44-8.94-3.91-13.45-2.37-2.99 1-1.98 4.42 1.04 5.12 3.18.62 6.83 1.24 9.33 2.88 10.27 5.69 8.91 19.97-2.57 25.23-7.82 3.48-18.7 1.83-24.67-4.21-.53-.55-.86-1.12-.86-1.85.5-2.28 1.28-6.65 3.21-7.53 1.07-.44 2.24.27 3.13.89 2.56 1.84 5.01 3.63 8.39 3.71 1.97.14 5.02-.86 4.27-3.33-.49-1.46-1.98-2.04-3.44-2.57-3.4-1.17-7.84-1.51-10.72-4.13-.42-.39-.86-.86-.95-1.4-.17-1.16 2.09-2.73.25-5.25s-2.86-1.42-3.42-2.27c-1.63-4.27 2.3-10.13 5.55-12.82 6.14-5.16 15.7-4.13 22.92-1.19 2.65 1.19 4.43 1.86 3.65 5.33-.3 1.67-.65 4.44-1.57 5.67l-.08.08zM136.07 22.93c1.26 1.07.84 3.06 1.05 4.56.64 4.9.44 7.09-5.03 6.71-1.33 0-3.11-.48-3.58 1.07-.77 9.14.13 19.13-.5 28.41-.11 1.38-.63 3.19-2.19 3.2-1.47.04-5.33 0-7.86 0-1.34 0-2.16.07-2.7-.4-1.5-1.71-.6-4.59-1.1-6.7-1.06-7.11.17-15.72-.05-23.3-.02-.65-.08-1.47-.49-1.91-1.26-1.16-4.81.24-6.48-.62-3.06-1.12-1.7-5-1.65-7.45.09-1.11.04-2.39.85-3.24 4.24-2.77 24.57-2.15 29.6-.42zM75.86 73.68c.81.52.89 1.77.86 2.74-.59 9.58-1.39 19.28-1.59 28.91 0 1.19.78 1.74 1.88 1.68 2.52-.03 6.16-.57 8.88-.45 2.33.08 3.82.56 3.54 2.73-.38 5.87.35 9.42-6.69 9.09-6.53.43-12.96.39-19.5-.08-1.21-.11-2.78-.52-3.41-1.55-.81-1.54-.22-3.49-.3-5.19.25-10.62.8-21.83 2.16-32.29.26-2.84.29-5.39 3.84-5.55 3.16-.15 7.03-1.06 10.21-.12l.12.07zM239.67 55.4c.26.35.7.38 1.12.4 8.03.35 12.96-2.36 11.54 8.73-1.09 4.85-20.14 2.04-23.66 2.36-2.68.13-3.35-2.81-3.29-5.02-.51-12.31-1.23-24.67-.58-36.99-.08-2.9 3.6-2.56 6.1-2.98 2.53-.22 5.18-.23 6.41.23.86.32 1.04 1.26 1.14 2.13 1.22 9.63-.35 21.27 1.15 31.06l.06.09z"/><path d="M52.27 21.67c1.17.18 2.36.85 2.89 2.02 2.41 5.39 3.73 11.84 5.77 17.53.46 1.45 1.13 3.55 1.45 4.84.3 1.13-.06 1.56-1.13 1.89-10.1 2.83-20.81 5.1-31.3 4.27-1.44-.07-1.82-.94-1.25-2.22 3.58-9.02 5.2-19.3 10.15-27.6.49-.45 1.15-.67 1.82-.76 3.76-.25 7.69-.42 11.44 0zm-3.41 28.57c-.58-2.73-1.94-7.87-2.65-10.84-.26.45-2.59 9.77-2.88 10.72 0 .23.19.12.53.15.86 0 4.08.02 4.98-.02l.03-.02zM66.43 65.51c-1.25 2.01-4.14.91-6.1 1.31-1.84.22-4.52.8-5.84-.37-1.27-1.23-1.29-3.4-1.99-4.9-.28-.65-.62-.94-1.21-1-1.83-.06-8-.02-10.2-.04-.36 0-.7.04-.97.26-1.33 1.56-1.09 4.56-2.89 5.82-1.31 1-3.86.53-5.57.31-1.95-.26-4.73.23-5.66-.99-1.49-2.54.26-6.77.92-9.99.24-1.43 1.56-1.11 2.93-1.02 13.58.83 21.8-1.43 31.57-4.19 1.19-.34 1.86-.52 2.12.62.93 4.58 3.67 9.41 2.95 14.04l-.07.15z"/><path d="M63.22 37.3c5.56.38 13.66 3.42 7.44 8.05-6.95 4.73-13.57 5.97-25.81 8.16-7.43 1.33-33.46.7-25.04-7.16 2.69-2.33 5.93-3.73 9.26-4.68.33-.08.8-.22 1.09-.08.41 1.18-3.43 2.06-4.34 2.55-1.88.81-5.99 2.95-5.72 5.11.56 4.54 19.7 4.07 23.23 3.54 4.29-.64 21.83-3.09 27.2-9.53 1.78-2.97-2.97-4.23-5.89-4.73-.93-.2-2.69-.1-3.3-.76-.17-.61 1.17-.55 1.7-.5l.19.02z"/></g><defs><clipPath id="a"><path fill="currentColor" d="M0 0h277.45v118.97H0z"/></clipPath></defs></svg>