<svg xmlns="http://www.w3.org/2000/svg" width="120" height="132" fill="none"><g fill="currentColor" clip-path="url(#a)"><path d="M46.48 25.54c.32.32 2.24-.3 2.91-.31 9.08-.04 24.63 7.95 31.83 13.46 18.62 13.65 22.15 33.11 23.01 55.04.1.66 1.21 4.38.98 4.65-3.2 1.03-5.86 3.181-8.72 4.881-4.36 2.6-8.53 5.24-12.77 8.01-27.09 17.71-63.2-4.52-58.03-36.91 2.16-13.53 13.06-27.01 27.15-28.85.1.46-.14.29-.34.42-8.99 5.92-16.93 13.5-19.32 24.44-1.11 5.05-1.01 13.29.44 18.26 5.7 19.49 28.86 27.72 45.62 15.98 4.07-2.85 11.05-10.36 12.4-15.14.97-3.44 1.25-7.46 1.57-11.02l-1.4 6.12c-5.67 18.15-30.28 29.73-45.74 15.76-8.96-7.78-13.92-20.92-7.57-31.9 3.73-6.45 10.36-8.08 17.46-7.55 5.23.39 11.42 4.8 10.89 10.56-.05.53-.82 2.85-1.27 2.96-.51.12-.48-1.6-.6-2.1-1.4-5.62-9.78-3.78-11.7.95-3.06 6.89 4.03 10.95 9.93 11.28 3.1-.26 8.47-2.5 10.08-5.29 3.51-6.09 3.7-16.05 1.19-22.53-2.09-5.39-5.76-8.96-11.01-11.29.16-.17.53-.23.76-.25 2.31-.23 5.02.32 7.31.63.18.03.58.19.54-.12-9.98-5.96-20.19-5.46-30.84-1.7-7.09 2.34-12.28 6.15-17.74 11.15-6.42 5.89-11.14 12.91-17.07 19.09-.74.77-1.24 2-2.44 2.37.31-1.41.14-.86-.43-1.51-.53-.6-.65-1.98-.75-2.8-1.59-13.07-.91-25.57 3.8-37.92C10.58 23.94 18.36 12.02 26.89 4.8c.84-.71 6.33-4.9 7.01-4.49 3.47 8.75 8.2 16.9 12.54 25.22z"/><path d="M118.25 10.72c-.35 3.61-2.92 8.38-4.06 12.08-2.13 6.45-3.92 13.01-6.07 19.45-.02.59 1.81 2.91 2.26 3.63 5.7 9.25 9.92 22.79 8.53 33.67-.44 3.44-1.48 6.79-1.84 10.24-.66.17-.08-.63-.5-.67-.46.96-.69 2.05-1.14 3.01-.11.24.1.46-.38.37-.23-3.48.54-6.91.34-10.39-.65-11.09-8.96-23.58-15.88-31.93-4.18-5.04-9.02-10.17-14.64-13.57s-11.38-5.89-17.38-8.64c-.17-.08-.4-.11-.41-.34 2.48-1.07 5.18-1.52 7.74-2.32 7.49-2.34 14.37-6.81 21.79-9.64 6.94-2.65 14.3-4.1 21.67-4.94zM76.34 120.701c.08.48-.1.28-.39.36-8.9 2.42-17.34 5.27-24.78 10.79-.88-2.15-2.43-3.73-4.06-5.32-13.59-14.17-27.85-23.31-46.98-28.38l-.14-.48c8.92-14.16 17.02-29.66 29.54-41-8.18 14.9-11.76 33.56-.41 47.97 7.05 9.04 25.08 15.91 36.3 16.41 3.66.16 7.26-.36 10.9-.35z"/></g><defs><clipPath id="a"><path fill="#fff" d="M0 .29h119.17v131.56H0z"/></clipPath></defs></svg>