<svg xmlns="http://www.w3.org/2000/svg" width="19" height="15" fill="none"><path fill="#FF6101" d="M4.647 3.941c.043.004.137.019.158.055.042.165.044.336.084.501.132.546.433.932.957 1.161.212.093.537.138.68.31.05.06.072.145.122.194.13.126.638.326.825.392.452.158.776.181 1.015.656.195.389.036.526-.09.88a5.8 5.8 0 0 0-.307 2.512c.009.092.09.327-.006.367l-6.89.015c-.127-.011-.145-.035-.171-.148-.269-1.133-.228-2.565.033-3.696C2.358 1.51 8.822-1.41 14.09 1.332c3.39 1.765 5.333 5.592 4.597 9.31-.038.193-.023.356-.279.342H12.24l-.206-.016c-.015-.012.073-.11.085-.134a.6.6 0 0 0 .05-.199l-.907-3.318c-.143-.394.282-.641.6-.756.169-.06.347-.05.44-.213.24-.417.412-.684.916-.841.506-.157 1.034.082 1.36-.455.12-.2.182-.468.171-.7-.003-.07-.072-.353-.03-.388l.053-.023h1.174c-.01-.044-.071-.098-.107-.127-.105-.086-.506-.279-.637-.291-.074-.007-.149.008-.224-.007-.083-.017-.133-.097-.216-.118-.084-.02-.171-.01-.261-.03-.133-.026-.277-.108-.408-.126-.13-.017-.281.02-.401-.057-.094-.06-.138-.128-.262-.163-.14-.04-.298.025-.366-.107-.112-.216-.12-.365-.301-.574-.715-.825-2.301-.899-3.197-.32-.104.067-.188.158-.288.228-.186.13-1.004.52-1.213.552-.13.02-.196-.046-.314-.075-.346-.086-.55-.011-.817.199-.071.056-.24.238-.326.251-.044.007-.185-.113-.25-.14-.283-.115-.549.035-.836.067-.22.06-.313.293-.563.221s-.368-.16-.63.007c-.119.074-.216.276-.281.31-.08.04-.138-.005-.2.012-.128.035-.301.19-.435.236l-.016.052z"/><path fill="#FF6101" d="M12.812 3.945c.387.023.844-.045 1.223-.004.066.007.119.022.116.097-.003.088-.132.353-.182.436-.091.149-.26.324-.394.44-.17.146-.307.248-.491.044-.173-.192-.355-.637-.361-.89-.002-.073.01-.11.088-.123M12.048 3.971c.007.03.027.047.032.082.021.165.023.463-.003.627-.051.325-.363.488-.658.577l.302.116c.07.045.108.09.098.176-.013.112-.268.063-.305.182-.036.117.12.179.12.19-.204.251-.402.035-.547-.14-.14.053-.223.099-.382.09-.593-.036-.431-.676-.058-.926.202-.135.595-.233.772-.025-.1.1-.246.089-.378.14-.184.07-.561.33-.526.547.044.27.627.04.781-.021-.033.126-.056.277.108.313-.051-.143-.072-.184.046-.291l.146-.112c-.104-.1-.248-.075-.382-.058-.088.011-.201.055-.278.058-.031.001-.031-.013-.021-.036.028-.065.64-.394.754-.475.132-.095.26-.188.178-.362-.037-.078-.076-.062-.056-.178.009-.051.177-.423.21-.452.015-.014.023-.027.047-.022M6.721 3.945c.319-.064.246.144.265.332.019.186.075.368.156.537.043.09.174.258.165.344-.013.134-.223.267-.243.406-.024.166.078.212.124.34.027.077-.084.01-.115-.007-.567-.305-.702-1.281-.478-1.821.026-.062.052-.117.126-.131M7.728 4.325c-.05-.05-.191-.227-.202-.29-.013-.072.043-.078.101-.09.509.024 1.074-.046 1.576-.004.21.017.154.1.066.23-.34.497-1.106.577-1.54.154M10.098 3.973a.4.4 0 0 1-.004.133c-.07.41-.49.615-.656.991-.083.19-.086.371-.143.563-.069.235-.12.341-.352.15a.594.594 0 0 1 .024-.933c.288-.223.53-.23.747-.588.103-.168.112-.443.384-.316"/><path fill="#FF6101" d="M8.156 5.816c-.007.002.01.036-.05.017-.074-.047-.598-.232-.611-.272a.08.08 0 0 1 .005-.065c.026-.054.228-.207.284-.277.026-.034.06-.075.061-.118-.005-.08-.172-.172-.23-.225a1.26 1.26 0 0 1-.39-.606c-.02-.07-.092-.332.05-.304.101.02.13.186.179.274.204.376.577.57.999.642.092.04-.055.189-.09.26-.048.102-.094.25-.103.362-.005.062.016.214 0 .254-.026.07-.062.044-.104.058M5.894 3.945c.088-.01.499-.017.555.02.016.01.023.029.028.047-.034.288-.139.594-.164.88-.007.088.017.383-.018.431-.04.056-.253.017-.317-.018a.5.5 0 0 1-.118-.11c-.13-.185-.2-.922-.143-1.138.026-.098.085-.101.177-.112M11.711 3.971c.033.045-.31.29-.357.317-.197.12-.374.109-.591.157a4 4 0 0 0-.494.139c-.024-.026.08-.418.1-.478s.031-.115.095-.147c.416-.003.833-.046 1.247.012M14.392 3.944c.129-.018.172.032.198.143.041.176.012.472-.054.642-.063.163-.28.285-.455.29-.341.009-.132-.185-.051-.335.083-.155.146-.296.2-.463.037-.112.02-.257.162-.277M5.142 3.945c.072-.01.42-.014.473.01.015.006.029.008.035.026.009.025-.084.352-.09.431-.01.129-.004.289-.001.42.002.08.056.198-.022.26a1.63 1.63 0 0 1-.46-.837c-.015-.064-.064-.24-.016-.284a.2.2 0 0 1 .08-.026M14.605 12.48l-.256.192v-.979c0-.118-.226-.14-.292-.076-.028.028-.033.086-.043.123l-.003 2.36c.008.087.023.128.117.14.177.025.22-.029.237-.192.111.106.247.205.408.223 1.397.157 1.237-2.391-.168-1.79m.419 1.5c-.17.05-.385.022-.516-.102-.302-.286-.213-1.15.298-1.217.773-.102.75 1.162.218 1.319M5.399 12.642c-.306-.358-.818-.32-1.143-.006l-.03-.016v-.912c0-.166-.303-.212-.337.031l-.002 2.347c-.018.232.384.213.338-.023.106.046.163.13.277.172.91.34 1.416-.985.897-1.593m-.752 1.36a.5.5 0 0 1-.42-.397c-.03-.227-.017-.635.157-.808.227-.226.673-.179.81.12.194.418.043 1.14-.547 1.086M11.014 12.388c-.278-.016-.486.112-.668.3v-.98a.3.3 0 0 0-.069-.113c-.119-.077-.249.014-.252.145.046.758-.067 1.596-.002 2.346.006.073.014.141.101.155.067.011.18.009.21-.062.02-.048-.005-.098.034-.131a.7.7 0 0 0 .447.222c1.136.106 1.255-1.822.199-1.882m-.33 1.592c-.5-.148-.478-1.254.15-1.318.846-.087.733 1.58-.15 1.318M7.347 12.822c-.114-.446-.604-.503-.996-.388-.21.062-.342.168-.24.396.044.026.099-.042.139-.061.196-.097.513-.187.69-.015.074.071.144.22.078.312-.037.05-.149.034-.204.044-.46.08-1.048.158-.894.774.112.448.713.495 1.028.223l.084-.09c.029.158.01.24.207.225.096-.008.128-.023.142-.116.037-.24.025-1.074-.034-1.304m-.353.927a.47.47 0 0 1-.575.231c-.254-.084-.245-.45-.004-.526.103-.032.418-.089.522-.09.175-.003.103.286.057.385M13.505 13.727c-.008-.613.16-1.413-.77-1.334-.122.01-.447.083-.51.19-.035.064-.05.274.058.251.038-.008.13-.082.184-.105.149-.062.44-.098.577-.003.103.07.172.252.093.357-.119.035-.262.034-.389.055-.308.05-.61.125-.695.458-.176.679.72.896 1.107.437.047 0-.02.19.138.21.137.015.21-.001.223-.143.012-.125-.015-.254-.016-.373m-.37-.003a.46.46 0 0 1-.58.256c-.25-.078-.252-.445-.004-.526a3 3 0 0 1 .522-.09c.175-.003.103.26.062.36M8.578 12.392a.89.89 0 0 0-.81.825c-.1 1.324 1.645 1.417 1.809.298.096-.658-.268-1.203-.999-1.123m.044 1.609c-.713-.056-.682-1.25-.044-1.34.37-.052.623.168.674.516.065.44-.105.866-.63.824"/></svg>