<svg width="18" height="15" viewBox="0 0 18 15" fill="none" xmlns="http://www.w3.org/2000/svg">
<path d="M3.80615 4.15159C3.84926 4.15577 3.94344 4.17042 3.9643 4.20675C4.00649 4.37181 4.00848 4.5421 4.04837 4.7079C4.17998 5.2539 4.48157 5.63933 5.00481 5.86882C5.21681 5.96182 5.54247 6.00667 5.68483 6.17786C5.73438 6.23751 5.75739 6.32363 5.80739 6.37236C5.93656 6.49855 6.44523 6.69859 6.63253 6.76422C7.08398 6.92255 7.40842 6.94572 7.64696 7.42011C7.84254 7.80913 7.68331 7.94682 7.55645 8.30011C7.2676 9.10506 7.16942 9.96158 7.25011 10.812C7.25886 10.9044 7.33939 11.1397 7.24382 11.1799L0.354058 11.194C0.227504 11.1832 0.209556 11.1594 0.182865 11.0469C-0.0855838 9.91329 -0.0449331 8.48191 0.216459 7.35089C1.51744 1.71895 7.98121 -1.19898 13.2482 1.54239C16.6387 3.30702 18.5811 7.13395 17.8449 10.8523C17.8067 11.0452 17.8224 11.2085 17.5667 11.1941H11.3985L11.1922 11.1784C11.1773 11.1659 11.2652 11.0676 11.2767 11.0442C11.2974 11.0016 11.3293 10.8909 11.3265 10.8458L10.4204 7.52791C10.2771 7.13366 10.7024 6.88607 11.0197 6.77185C11.1891 6.71085 11.3672 6.72191 11.4609 6.55895C11.7011 6.14123 11.8722 5.87406 12.3767 5.71722C12.8819 5.56009 13.4097 5.7999 13.7357 5.26257C13.8567 5.06298 13.9185 4.79447 13.9073 4.56288C13.9039 4.49156 13.8348 4.209 13.877 4.17416C13.8809 4.17087 13.9276 4.15159 13.9305 4.15159H15.104C15.0934 4.10733 15.0328 4.05381 14.9968 4.02436C14.8923 3.93854 14.4909 3.74567 14.3599 3.73312C14.2862 3.72609 14.2117 3.74179 14.1367 3.72639C14.0531 3.70919 14.0032 3.62951 13.9199 3.60873C13.8366 3.58794 13.749 3.59751 13.6588 3.57912C13.5257 3.55206 13.3819 3.46998 13.2514 3.45294C13.1208 3.43589 12.9701 3.47237 12.8499 3.39568C12.7562 3.33602 12.7127 3.2677 12.5878 3.23257C12.4473 3.1931 12.2902 3.25783 12.2219 3.12567C12.1101 2.90903 12.1021 2.76072 11.9211 2.55171C11.2061 1.72643 9.61982 1.65287 8.72382 2.23176C8.61997 2.29889 8.53667 2.38979 8.43604 2.45961C8.25058 2.58864 7.43189 2.9799 7.22311 3.01159C7.09288 3.03133 7.02707 2.96569 6.90895 2.93624C6.56365 2.85028 6.35886 2.92503 6.09195 3.13524C6.02077 3.1913 5.85157 3.3731 5.76598 3.38671C5.7218 3.39373 5.58098 3.27368 5.51609 3.24722C5.23291 3.1315 4.96738 3.2816 4.67976 3.31375C4.46009 3.3728 4.36682 3.60678 4.11694 3.53442C3.86705 3.46206 3.74909 3.37534 3.48631 3.541C3.3685 3.6153 3.27155 3.81729 3.20575 3.85063C3.1269 3.8907 3.06845 3.84614 3.00556 3.86349C2.87824 3.89847 2.70521 4.05351 2.57129 4.09941L2.55564 4.15144H3.80584L3.80615 4.15159Z" fill="currentColor"/>
<path d="M11.9707 4.15515C12.358 4.17892 12.815 4.11089 13.1942 4.15156C13.2601 4.15859 13.3131 4.17294 13.3101 4.24814C13.3068 4.33605 13.1785 4.60158 13.1278 4.68485C13.0372 4.83331 12.868 5.00868 12.7343 5.12366C12.564 5.27017 12.4267 5.37258 12.2428 5.16821C12.0702 4.97654 11.8884 4.53101 11.882 4.27774C11.8802 4.20523 11.8929 4.16875 11.9705 4.155L11.9707 4.15515Z" fill="currentColor"/>
<path d="M11.2073 4.18146C11.2142 4.21226 11.2346 4.22871 11.239 4.26295C11.2604 4.42845 11.2627 4.72597 11.2366 4.88998C11.185 5.21531 10.8738 5.37887 10.5787 5.46738L10.8807 5.58384C10.95 5.62839 10.9885 5.67369 10.9786 5.75921C10.9654 5.87194 10.7103 5.82201 10.6736 5.94131C10.6374 6.05883 10.7928 6.11997 10.7931 6.13238C10.5896 6.38251 10.3909 6.16632 10.2464 5.99155C10.1057 6.04432 10.0229 6.09007 9.86459 6.08065C9.27109 6.04537 9.43308 5.40578 9.8066 5.15565C10.0086 5.02035 10.4009 4.92272 10.5784 5.13069C10.4786 5.22996 10.3323 5.21949 10.2001 5.27003C10.0163 5.34014 9.63909 5.59954 9.67437 5.81752C9.71809 6.08753 10.301 5.85744 10.4558 5.79614C10.4223 5.92203 10.3989 6.07303 10.5632 6.10981C10.5122 5.96643 10.4915 5.92517 10.609 5.81827L10.7551 5.70614C10.6512 5.60627 10.5078 5.63124 10.3733 5.64828C10.2855 5.65949 10.172 5.703 10.0951 5.70644C10.0643 5.70778 10.064 5.69313 10.074 5.67056C10.1025 5.60507 10.7152 5.27645 10.8287 5.19512C10.9603 5.10078 11.0881 5.00749 11.0063 4.83317C10.9697 4.75497 10.9304 4.77187 10.9503 4.6557C10.9592 4.60412 11.1278 4.23245 11.1608 4.20314C11.1757 4.18984 11.1827 4.17608 11.2071 4.18131L11.2073 4.18146Z" fill="currentColor"/>
<path d="M5.88051 4.15499C6.19927 4.0916 6.12687 4.29987 6.14558 4.4878C6.16414 4.67393 6.21998 4.85559 6.30098 5.02408C6.34423 5.11408 6.47539 5.28258 6.4668 5.36825C6.4533 5.5025 6.24391 5.63541 6.22351 5.77491C6.19912 5.94086 6.3019 5.98691 6.34761 6.11518C6.37491 6.19188 6.26355 6.12371 6.23271 6.10711C5.66514 5.80256 5.5303 4.82598 5.75441 4.28626C5.78003 4.22437 5.80642 4.16965 5.88051 4.15499Z" fill="currentColor"/>
<path d="M6.88713 4.53505C6.83651 4.48571 6.696 4.30795 6.6848 4.24501C6.67207 4.17339 6.72852 4.16696 6.78604 4.1556C7.29487 4.17982 7.85999 4.10985 8.36252 4.15112C8.57222 4.16831 8.51654 4.25114 8.42818 4.38061C8.08871 4.87802 7.32202 4.95905 6.88713 4.5352V4.53505Z" fill="currentColor"/>
<path d="M9.25733 4.18355C9.2647 4.22811 9.26025 4.27251 9.25258 4.31676C9.18232 4.72626 8.76278 4.93109 8.59726 5.30755C8.51396 5.49682 8.51059 5.67847 8.45414 5.87074C8.38526 6.10532 8.33464 6.21177 8.10163 6.01995C7.80296 5.77401 7.8206 5.32265 8.12556 5.08717C8.41379 4.86456 8.65509 4.85738 8.87292 4.49991C8.97554 4.33156 8.98444 4.05617 9.25718 4.18355H9.25733Z" fill="currentColor"/>
<path d="M7.31478 6.02608C7.30849 6.02817 7.32491 6.06241 7.26477 6.04357C7.1913 5.99618 6.66713 5.81094 6.65363 5.77117C6.64612 5.74919 6.64964 5.72737 6.65946 5.70658C6.68539 5.65201 6.88741 5.49937 6.94264 5.4294C6.96948 5.39546 7.00353 5.35464 7.0043 5.31129C6.99924 5.23175 6.83188 5.1395 6.77405 5.08613C6.58905 4.91539 6.44808 4.72447 6.38319 4.48033C6.36463 4.41066 6.29207 4.14842 6.4332 4.17638C6.53536 4.19656 6.56451 4.36222 6.61283 4.45072C6.81746 4.82659 7.19053 5.02095 7.61161 5.09196C7.70411 5.13203 7.55746 5.28094 7.52294 5.35225C7.4737 5.45422 7.42784 5.60208 7.41863 5.71406C7.41357 5.77626 7.43505 5.9289 7.42001 5.96822C7.39348 6.03804 7.35727 6.01218 7.31463 6.02593L7.31478 6.02608Z" fill="currentColor"/>
<path d="M5.05328 4.15589C5.14149 4.14633 5.55198 4.13795 5.60782 4.17458C5.62393 4.18505 5.6316 4.20418 5.6362 4.22198C5.60215 4.51038 5.49722 4.81597 5.47252 5.10287C5.46501 5.19018 5.48878 5.48561 5.45411 5.53345C5.41377 5.58907 5.2007 5.5502 5.1375 5.51521C5.10575 5.49757 5.03948 5.43583 5.01908 5.40637C4.8893 5.22053 4.81874 4.48331 4.87611 4.26728C4.90219 4.16905 4.96109 4.16606 5.05328 4.15589Z" fill="currentColor"/>
<path d="M10.8701 4.18161C10.9034 4.22677 10.5592 4.47091 10.5132 4.49872C10.3156 4.61862 10.1395 4.60726 9.92197 4.6551C9.75538 4.69173 9.58787 4.73733 9.42833 4.79429C9.40409 4.76798 9.50779 4.37627 9.52804 4.31602C9.54829 4.25577 9.55918 4.2012 9.62315 4.1695C10.039 4.16666 10.4566 4.12375 10.8701 4.18146V4.18161Z" fill="currentColor"/>
<path d="M13.551 4.1547C13.6801 4.13676 13.7235 4.18655 13.7495 4.29793C13.7904 4.4739 13.7608 4.76918 13.6955 4.93902C13.6326 5.10273 13.416 5.22398 13.2402 5.22876C12.8989 5.23818 13.1084 5.04412 13.189 4.89401C13.2718 4.73957 13.3351 4.59859 13.3898 4.43189C13.4266 4.31946 13.4095 4.17414 13.5507 4.15455L13.551 4.1547Z" fill="currentColor"/>
<path d="M4.30111 4.1556C4.37321 4.14498 4.72158 4.14125 4.77404 4.16502C4.78892 4.17175 4.80303 4.17294 4.80932 4.19103C4.81822 4.21645 4.72495 4.54387 4.71897 4.62266C4.70931 4.75094 4.71498 4.91106 4.7182 5.04173C4.72005 5.12156 4.77435 5.24042 4.69581 5.30247C4.45819 5.07985 4.30449 4.7786 4.23546 4.46568C4.22135 4.40184 4.17272 4.22602 4.22012 4.18131C4.24251 4.16547 4.27411 4.15949 4.30096 4.1556H4.30111Z" fill="currentColor"/>
<path d="M13.7646 12.6913L13.5086 12.8828V11.9035C13.5086 11.7858 13.2827 11.7637 13.2162 11.8279C13.188 11.8551 13.1833 11.9135 13.1728 11.9502L13.1705 14.3113C13.1787 14.3971 13.1929 14.4383 13.2876 14.4514C13.4646 14.4759 13.5079 14.422 13.5241 14.2585C13.6355 14.3642 13.7714 14.4631 13.9322 14.4812C15.3295 14.6387 15.1696 12.0905 13.7646 12.6916V12.6913ZM14.1831 14.1905C14.0125 14.2408 13.7981 14.2122 13.6674 14.0884C13.3657 13.8028 13.4543 12.9391 13.965 12.8716C14.738 12.7695 14.716 14.0332 14.183 14.1904L14.1831 14.1905Z" fill="currentColor"/>
<path d="M4.55797 12.8527C4.25179 12.4942 3.73974 12.5325 3.41546 12.8465L3.38432 12.8306V11.9186C3.38432 11.7528 3.08228 11.706 3.04822 11.9499L3.04638 14.2964C3.02813 14.5284 3.43049 14.509 3.38447 14.2735C3.49001 14.319 3.54707 14.4027 3.66074 14.4451C4.57101 14.7857 5.07738 13.4608 4.55813 12.8529L4.55797 12.8527ZM3.80632 14.2131C3.60613 14.1944 3.41162 14.0102 3.38555 13.8159C3.35517 13.5882 3.36944 13.1809 3.54309 13.0076C3.76981 12.7814 4.2162 12.8285 4.35365 13.1265C4.54693 13.5458 4.39583 14.2683 3.80632 14.2131Z" fill="currentColor"/>
<path d="M10.1729 12.5983C9.89567 12.5824 9.68751 12.7106 9.50496 12.8977V11.9185C9.50496 11.8995 9.45802 11.8198 9.43655 11.8057C9.31751 11.7287 9.18758 11.8195 9.18451 11.95C9.23022 12.7086 9.11778 13.5466 9.18221 14.2961C9.1885 14.3699 9.19617 14.4374 9.2833 14.4516C9.35033 14.4625 9.46278 14.4604 9.4933 14.3889C9.5137 14.3412 9.4887 14.2911 9.52766 14.2584C9.65499 14.3853 9.78875 14.4631 9.97452 14.4804C11.1103 14.5866 11.2295 12.6585 10.1727 12.598L10.1729 12.5983ZM9.8429 14.1905C9.34313 14.0425 9.36522 12.9365 9.99246 12.872C10.8394 12.785 10.7259 14.452 9.8429 14.1905Z" fill="currentColor"/>
<path d="M6.50608 13.0321C6.3918 12.586 5.90246 12.529 5.50975 12.6445C5.2996 12.7062 5.16844 12.8127 5.27091 13.0405C5.31448 13.0667 5.36909 12.9988 5.40866 12.9794C5.60548 12.8822 5.9224 12.7922 6.09988 12.9646C6.17336 13.0359 6.24316 13.1849 6.17719 13.2761C6.14038 13.327 6.02855 13.3108 5.97333 13.3204C5.51282 13.4004 4.92546 13.4784 5.07901 14.0942C5.19084 14.5429 5.79186 14.59 6.10678 14.3175L6.19146 14.2283C6.21999 14.3856 6.20143 14.4676 6.39855 14.4523C6.49381 14.4448 6.52618 14.4299 6.54044 14.3364C6.57711 14.0957 6.56529 13.2627 6.50624 13.0321H6.50608ZM6.15296 13.9591C6.05432 14.1693 5.80259 14.2656 5.57786 14.1908C5.32368 14.1062 5.33289 13.7402 5.57449 13.6644C5.67681 13.6323 5.99204 13.5756 6.09635 13.5741C6.27123 13.5716 6.19913 13.8609 6.15296 13.9591Z" fill="currentColor"/>
<path d="M12.6643 13.9374C12.6562 13.3247 12.8243 12.5243 11.8949 12.6032C11.7728 12.6135 11.4476 12.6866 11.3853 12.7943C11.3489 12.8574 11.3347 13.0673 11.4419 13.0447C11.4802 13.0366 11.572 12.9629 11.6267 12.9397C11.7752 12.877 12.0658 12.8415 12.2037 12.936C12.3066 13.0064 12.3755 13.1884 12.2963 13.2933C12.1779 13.3286 12.0346 13.328 11.9079 13.3484C11.5996 13.3977 11.2983 13.4738 11.2122 13.8066C11.0366 14.4855 11.9331 14.702 12.3198 14.2435C12.3669 14.243 12.2991 14.4344 12.4574 14.4528C12.5942 14.4686 12.6674 14.4525 12.6807 14.311C12.6927 14.185 12.6657 14.0564 12.6642 13.9373L12.6643 13.9374ZM12.2945 13.9346C12.2014 14.1621 11.9545 14.2663 11.714 14.1908C11.4652 14.1126 11.462 13.7454 11.7105 13.6644C11.8145 13.6305 12.1254 13.5755 12.2323 13.5741C12.4072 13.5719 12.3354 13.8343 12.2945 13.9346Z" fill="currentColor"/>
<path d="M7.7374 12.6028C7.28948 12.6522 6.96028 12.9915 6.92715 13.4277C6.82667 14.7512 8.57189 14.8443 8.73603 13.7256C8.83252 13.0679 8.46804 12.522 7.73725 12.6026L7.7374 12.6028ZM7.78112 14.2115C7.06828 14.1551 7.09942 12.9617 7.7371 12.8717C8.1074 12.8194 8.36005 13.0398 8.41159 13.3877C8.47678 13.8284 8.30605 14.253 7.78112 14.2115Z" fill="currentColor"/>
</svg>
