<svg xmlns="http://www.w3.org/2000/svg" width="582" height="201" fill="none"><path fill="#D81F26" d="M249.349 29.002c-1.745.303-3.52.394-5.357.636l-5.603-16.227v16.923c-1.745.182-3.337.424-4.99.666V0h4.654l6.367 17.59V0h4.929zm9.644-17.65c1.898 0 4.807-.09 6.552-.09v4.843c-2.174 0-4.715 0-6.552.091v7.205c2.878-.181 5.756-.424 8.664-.514v4.661l-13.562 1.06V0h13.562v4.844h-8.664zm26.88-6.508h-5.082v22.281c-1.653 0-3.307 0-4.898.06V4.845h-5.082V0h15.062zm7.96 6.176h6.704v4.843h-6.704v10.99h-4.807V0h13.685v4.844h-8.878zm16.838 11.594c2.786.06 5.602.273 8.327.424v4.783c-4.378-.272-8.756-.545-13.225-.636V0h4.898zm12.46 5.54c1.562.091 3.215.182 4.807.363V0h-4.807zM349.399 0l-6.215 14.743L349.399 31c-1.837-.242-3.674-.575-5.511-.878l-3.521-8.96-3.581 8.234c-1.776-.303-3.491-.394-5.266-.636l6.307-14.199L332.132 0h5.266l3.214 8.144L344.041 0z"/><path fill="#0D0D0D" fill-rule="evenodd" d="M240.538 160.539c14.202-.002 24.207 6.939 24.207 19.908s-10.005 19.908-24.207 19.908c-13.563 0-24.207-6.938-24.207-19.908s10.552-19.906 24.207-19.908m0 7.999c-7.846 0-14.207 5.333-14.207 11.909l.005.307c.191 6.332 6.28 11.437 13.835 11.598l.367.003c7.723 0 14.008-5.167 14.202-11.601l.005-.307c0-6.473-6.164-11.742-13.841-11.905z" clip-rule="evenodd"/><path fill="#0D0D0D" d="m154.943 186.897 9.571-25.072h8.842l9.739 25.072 9.402-25.072h10.018l-14.551 37.161h-9.011l-10.073-24.345-10.187 24.345h-8.954l-14.384-37.161h10.075z"/><path fill="#0D0D0D" fill-rule="evenodd" d="M310.271 161.825c4.417.599 13.25 3.719 13.25 11.414 0 9.619-6.89 12.74-9.001 12.74l11.572 13.007h-11.88l-10.075-11.995h-10.296v11.995h-9.484v-37.161zm-16.43 17.686h14.651c1.778 0 4.822-1.371 4.822-5.032s-3.044-5-4.822-5h-14.651z" clip-rule="evenodd"/><path fill="#0D0D0D" d="M356.575 191.442h23.755v7.544h-33.82v-37.161h10.065z"/><path fill="#0D0D0D" fill-rule="evenodd" d="M425.826 161.825c.097 0 19.218.045 19.218 18.58 0 18.536-19.121 18.581-19.218 18.581h-24.56v-37.161zm-14.541 28.884h13.618c.041 0 10.656-.02 10.657-10.303s-10.616-10.302-10.657-10.302h-13.618zM430.35 19.024c0 .196.089.949.221 2.068.482 4.08 1.537 13.024.956 17.56-.74 5.781-.37 12.719 2.081 12.812 1.961.074 3.901-7.473 4.625-11.255-.061.653-.24 2.986-.462 7.093-.221 4.106 1.203 5.617 1.943 5.86h72.621v22.913h-38.748V99.39c7.389-.086 14.659.963 21.759 1.987 6.526.941 12.908 1.862 19.107 1.862 9.82 0 11.476-.203 11.621-3.944.009.893.236 2.06 2.142 2.06 2.621 0 2.621-8.957 2.621-18.84 0 19.762 1.474 21.134 5.324 23.756 1.214.826 6.219 1.701 12.502 2.8 13.647 2.387 33.329 5.829 33.33 12.12 0 9.503-69.027 15.052-105.333 16.575 49.524-2.742 90.827-14.013 90.18-19.798-.562-5.022-9.211-6.724-15.029-7.499 4.148 1.003 7.632 4.319 7.632 6.5 0 12.73-140.765 25.395-319.438 22.441-178.674-2.954-222.474-17.03-222.474-22.412 0-4.305 7.908-6.553 13.708-7.914-7.471.059-22.002 4.53-22.003 8.732 0 2.833 3.556 4.275 6.641 5.526.576.234 1.137.461 1.654.689-2.86 0-17.53-2.592-17.531-7.063 0-8.782 49.888-14.473 58.596-14.473 6.67 0 8.226-10.504 8.191-16.423.266 11.936 2.755 14.371 5.752 14.717 2.448.282 15.103-1.099 21.125-1.824V53.16h29.15l20.332 21.353c3.432 0 4.622-.659 4.622-19.195.165 5.089 1.01 16.276 3.072 20.32s2.758 8.317 2.848 9.948l23.744 24.935v-57.36h28.248v82.032h7.649V53.161h128.633l23.78 28.403 23.864-28.403h36.386c.925-.502 3.091-3.796 4.358-12.952 1.124-8.134.65-13.07.282-16.905-.15-1.562-.282-2.941-.282-4.28m-124.974 56.47h-62.528V88.63h60.2v22.617h-60.2v13.304h63.359v11.973h6.319l33.177-37.584-40.327-45.78zm43.739 59.805c2.38.082 12.024.076 31.56-.599l-14.933-17.731zm-226.301-5.575c4.052.576 17.753 2.007 40.137 3.119l-40.137-43.695zm262.967-30.783 29.605 33.823c4.778-.09 20.891-1.189 28.35-1.727V76.075H405.82zm87.806 29.269c14.551-1.552 43.477-6.107 42.772-11.915-.706-5.809-28.809-10.139-42.772-11.578zM93.664 106.26c-16.41 1.941-33.244 6.413-33.186 10.002.037 2.226 2.172 3.509 3.95 4.109.367.221.827.356 1.394.356a9 9 0 0 1-1.394-.356c-.924-.556-1.264-1.662-1.267-2.555-.014-4.406 18.113-6.818 24.446-6.818-.52.024-18.392 1.963-19.457 6.818-1.064 4.856 16.566 8.177 25.514 9.23zm455.729 3.911c.715.083 1.534.18 2.418.298a10.3 10.3 0 0 0-2.418-.298" clip-rule="evenodd"/></svg>