<svg xmlns="http://www.w3.org/2000/svg" width="116" height="93" fill="none"><path fill="#E68E46" fill-rule="evenodd" d="M58 0c12.135 0 23.399 3.727 32.71 10.099a57 57 0 0 0-2.045 1.659.2.2 0 0 1-.263-.005c-2.435-2.189-5.576-4.844-7.81-4.844-2.478 0-8.02 4.86-9.502 6.201-.134.122-.045.34.137.34h23.912a58.2 58.2 0 0 1 16.114 21.535 18.86 18.86 0 0 0-11.403 6.696.197.197 0 0 0 .154.32h13.761A58 58 0 0 1 116 58a57.74 57.74 0 0 1-11.748 35H11.748A57.74 57.74 0 0 1 0 58c0-3.702.348-7.324 1.01-10.833h13.486c.167 0 .26-.191.154-.32a18.86 18.86 0 0 0-11.83-6.764 57.8 57.8 0 0 1 8.137-16.015h29.48a.201.201 0 0 0 .134-.35c-2.923-2.611-7.754-7.319-10.975-7.319-2.371 0-7.131 3.792-9.75 6.043a.2.2 0 0 1-.263-.003c-1.307-1.181-2.817-2.52-4.332-3.638C25.853 7.244 41.081 0 58 0m-9.744 62.102v24.673h19.488V62.102zm9.232-30.032c-5.253.267-9.431 4.611-9.431 9.931l.012.51c.267 5.254 4.613 9.432 9.932 9.432 5.32 0 9.663-4.178 9.93-9.431l.012-.511c0-5.32-4.178-9.664-9.431-9.93L58 32.057z" clip-rule="evenodd"/><path fill="#42587D" d="M63.999 74.013a1 1 0 1 1 0 2 1 1 0 0 1 0-2M56.081 44.693a1.5 1.5 0 1 1-.327 2.984 1.5 1.5 0 0 1 .327-2.984M59.919 44.693a1.5 1.5 0 1 1 .325 2.984 1.5 1.5 0 0 1-.325-2.984M53.503 41.032a1.5 1.5 0 1 1-.327 2.984 1.5 1.5 0 0 1 .327-2.984M62.497 41.032a1.501 1.501 0 1 1 .325 2.985 1.501 1.501 0 0 1-.325-2.985M58 40.716a1.284 1.284 0 1 1 0 2.568 1.284 1.284 0 0 1 0-2.568M55.563 36.68a1.5 1.5 0 1 1-.327 2.983 1.5 1.5 0 0 1 .327-2.982M60.438 36.68a1.5 1.5 0 1 1 .324 2.983 1.5 1.5 0 0 1-.325-2.982"/><path fill="#42587D" fill-rule="evenodd" d="M57.999 33.058c4.939 0 8.944 4.004 8.944 8.943A8.944 8.944 0 1 1 58 33.058M58 34a8 8 0 1 0 0 16 8 8 0 0 0 0-16" clip-rule="evenodd"/><path fill="#42587D" fill-rule="evenodd" d="M83.1 38.007V31.91h-2.026v-3.407h13.76v3.407h-2.025v13.255L107.5 56H97l-5 33c1.78 0 3.632.11 5.487.295.265-1.85.117-5.03-2.19-6.491 1.017.553 3.127 2.11 3.428 3.909.678-1.41 1.627-4.98 0-7.979 1.124 1.036 3.116 3.91 2.087 7.122 1.714-1.91 5.806-5.837 8.462-6.265-2.017 2.053-6.212 6.877-6.855 9.747l-.163.584c5.58.898 10.648 2.247 13.244 3.078H.5c2.596-.83 7.664-2.18 13.244-3.078l-.163-.584c-.643-2.87-4.838-7.694-6.855-9.747 2.656.428 6.748 4.355 8.462 6.265-1.029-3.212.963-6.086 2.087-7.122-1.627 2.999-.678 6.568 0 7.979.3-1.8 2.41-3.356 3.428-3.91-2.307 1.462-2.455 4.642-2.19 6.492A56 56 0 0 1 24 89l-5-33H8.5L58 19.5zM49 86.5h18v-24H49zm8.488-54.43c-5.253.267-9.431 4.611-9.431 9.931l.012.51c.267 5.254 4.613 9.432 9.932 9.432 5.32 0 9.663-4.178 9.93-9.431l.012-.511c0-5.32-4.178-9.664-9.431-9.93L58 32.057z" clip-rule="evenodd"/></svg>