<svg xmlns="http://www.w3.org/2000/svg" width="307" height="135" fill="none"><path fill="#0D0D0D" fill-rule="evenodd" d="M161.439 116.73v17.504h8.474c2.638-.186 7.915-2.197 7.915-8.752s-5.277-8.566-7.915-8.752zm3.903 13.992v-10.48h4.571c1.226.149 3.679 1.405 3.679 5.24s-2.453 5.091-3.679 5.24z" clip-rule="evenodd"/><path fill="#0D0D0D" d="M135.319 116.756h-3.966v10.994c0 2.47 2.011 6.595 7.828 6.595s7.62-4.206 7.585-6.595v-10.994h-4.001v10.994c.116 1.044-.438 3.132-3.584 3.132s-3.885-2.088-3.862-3.132zM90.278 118.833l-1.89 2.575c-.718-.391-5.64-2.803-6.552-.489-.31.787.658 2.292 3.26 2.738 4.563.782 5.703 2.868 5.703 5.117s-1.206 5.476-6.03 5.476c-3.859 0-6.757-1.782-7.724-2.673l2.445-2.412c4.79 3.227 6.975 1.956 7.43.294.457-1.663-2.476-1.923-4.204-2.51s-5.117-1.173-5.117-4.857c0-3.683 2.608-5.736 6.486-5.736 3.103 0 5.422 1.651 6.193 2.477"/><path fill="#0D0D0D" fill-rule="evenodd" d="M166.977 104.878h10.247V89.794h8.197l10.001 15.084h12.215l-11.559-16.641c3.279-.792 9.837-5.05 9.837-15.74s-9.072-13.963-13.608-14.264h-25.33zm10.247-37.551v13.355c14.346 0 18.198.145 18.198-6.506s-2.914-6.85-18.198-6.85M56.873 104.615h-10.42V57.941h20.84c5.554.398 16.661 4.18 16.661 16.12 0 11.939-11.107 16.082-16.661 16.66h-10.42zm0-37.665v14.328l1.595.002c9.41.021 14.578.033 14.578-7.22 0-7.163-5.04-7.146-14.231-7.114q-.943.003-1.942.004" clip-rule="evenodd"/><path fill="#0D0D0D" d="M6.076 90.741 0 97.936c2.505 2.558 9.865 7.674 19.266 7.674 11.75 0 18.07-6.955 18.07-14.472 0-7.518-4.053-11.334-13.999-13.999-9.945-2.664-11.302-4.384-11.302-6.525s1.715-4.174 7.23-4.174c4.413 0 9.407 2.93 11.352 4.396l4.956-7.754c-2.037-1.559-6.378-5.996-16.307-5.996-14.47 0-17.427 10.153-17.427 13.75v.002c0 3.597 0 10.467 11.351 13.508 11.353 3.042 13.75 5.516 13.75 7.195 0 1.678-.8 4.796-7.674 4.796-5.5 0-11.085-3.73-13.19-5.596M227.487 104.925h-10.082l-.121-46.79h10.203v20.527l18.958-20.528h12.558l-19.018 19.924 19.923 26.867h-12.377l-14.308-19.984-5.736 5.615z"/><path fill="#0D0D0D" d="M296.044 81.457c0-7.881-6.069-14.293-13.627-14.492l-.36-.005c-7.725 0-13.988 6.49-13.988 14.497l.005.374c.189 7.708 6.183 13.92 13.621 14.116l.362.005c7.604 0 13.79-6.289 13.982-14.121zm10 0c0 13.188-10.406 23.495-23.987 23.495s-23.987-10.307-23.988-23.495c0-13.19 10.406-23.497 23.988-23.497s23.987 10.308 23.987 23.497M225.167 125.551c0-3.061-2.357-5.552-5.293-5.629l-.14-.002c-3.001 0-5.433 2.521-5.433 5.631l.001.145c.074 2.994 2.402 5.408 5.292 5.484l.14.002c2.954-.001 5.357-2.443 5.431-5.486zm3.885 0c0 5.123-4.043 9.127-9.318 9.127-5.276 0-9.318-4.004-9.318-9.127s4.042-9.127 9.318-9.127 9.318 4.004 9.318 9.127M118.055 116.763h-14.659v3.403h5.265v14.024h4.039v-14.024h5.355zM196.007 134.219h-3.77v-17.445h3.77zM119.665 55.88c1.483 0 3.717 2.965 6.463 6.81l.143.2c2.718 3.804 5.954 8.335 6.062 9.684.11 1.373-4.997 6.59-7.139 12.52-1.713 4.746-4.486 12.962-5.529 16.476-1.043-3.514-3.81-11.73-5.523-16.475-2.142-5.931-7.249-11.148-7.139-12.52.108-1.35 3.344-5.881 6.061-9.685l.144-.2c2.746-3.845 4.613-6.81 6.096-6.81zm0 9.72c0 2.086-1.35 5.162-5.194 5.162 3.822 0 5.139 3.186 5.194 4.778.055-1.593 1.378-4.778 5.2-4.778-3.844 0-5.2-3.076-5.2-5.162m.266-63.764c2.87 6.973 10.534 21.916 20.427 30.9 10.214 9.273 26.267 15.407 33.017 17.315-14.823 1.106-29.679 11.745-35.253 16.927-3.763-5.16-11.675-16.02-13.219-18.188a5.85 5.85 0 0 0-2.106-1.807 6.8 6.8 0 0 0-2.85-.75l-.279.002c-.677-.031-1.916.122-3.129.748a5.85 5.85 0 0 0-2.106 1.807c-1.544 2.168-9.456 13.028-13.219 18.188-5.574-5.182-20.429-15.82-35.252-16.927 6.75-1.908 22.802-8.042 33.016-17.316s18.049-24.897 20.69-31.55zM148.681 0a16.1 16.1 0 0 0 9.136 9.135 16.1 16.1 0 0 0-9.136 9.136 16.1 16.1 0 0 0-9.135-9.136A16.1 16.1 0 0 0 148.681 0M172.427 22.564a8.7 8.7 0 0 0 4.933 4.933 8.7 8.7 0 0 0-4.933 4.933 8.7 8.7 0 0 0-4.933-4.933 8.7 8.7 0 0 0 4.933-4.933"/></svg>