<svg width="263" height="261" viewBox="0 0 263 261" fill="none" xmlns="http://www.w3.org/2000/svg">
<path d="M164.4 95.8612C152.135 96.9697 134.499 90.5795 129.539 78.4689C125.156 76.0372 113 86.1731 107.517 76.33C101.121 64.8376 118.081 71.8963 120.035 69.6696C114.789 62.013 103.803 67.1934 102.37 54.4455C100.706 39.655 116.554 55.4457 117.849 53.0288C116.949 45.8122 109.36 37.1623 116.421 30.9141C126.303 22.1776 124.552 35.0037 125.571 40.222C126.202 43.4699 128.528 51.4519 131.223 45.9252C132.613 43.0807 132.886 40.5632 135.013 37.5899C150.687 15.703 193.327 9.23969 211.095 31.8349L212.814 31.8677C220.932 29.33 227.731 23.1501 231.715 15.7999C234.096 11.4051 235.415 0.156361 241.637 0.806777C247.368 3.82288 250.028 12.3266 247.556 18.2271C246.869 19.845 244.747 20.4627 243.881 22.605C240.777 30.2567 243.07 39.5216 229.209 37.4931L228.703 41.5329C232.472 39.4768 236.858 38.7903 240.644 36.8224C246.084 34.0068 259.606 18.9135 261.07 32.6279C262.012 41.4801 253.775 42.2668 249.45 45.8081C246.406 48.3037 245.431 53.9944 239.202 53.8061L249.175 54.3244C253.52 52.5022 257.819 49.1505 261.433 53.9937C263.453 56.7122 259.912 62.851 257.549 64.1377C253.861 66.1374 250.366 64.6106 247.794 65.5334C245.651 66.3002 243.864 69.8861 239.484 70.8477C230.682 72.7663 230.401 63.7357 219.257 68.5414C207.375 73.6603 215.729 106.275 216.641 115.738C218.619 136.146 215.944 157.848 204.906 175.483C200.982 181.742 194.6 186.651 190.589 192.244C181.696 204.679 179.148 216.725 161.938 222.493C156.66 224.261 149.82 224.175 145.137 226.766C140.77 229.171 138.06 239.318 135.117 243.608C126.743 255.816 110.842 264.49 96.1608 258.623C90.3221 256.287 85.7838 250.744 78.8005 250.227C71.8172 249.711 63.3908 254.852 54.7672 255.365C42.1374 256.117 31.2423 247.465 27.378 235.677C24.6629 227.408 26.69 218.957 22.7457 211.106C17.1303 199.883 -1.18123 199.857 1.09607 178.58C2.39142 166.403 14.1929 160.59 15.8102 153.383C17.4275 146.176 10.1385 139.015 15.3339 129.161C21.6627 117.121 36.9732 118.844 42.1569 112.938C45.7034 108.89 40.5506 100.49 44.1397 93.578C47.3217 87.4227 58.8693 85.5971 55.8509 77.3268C53.6118 71.1945 43.7905 73.0251 39.6738 69.4849C58.1564 62.503 89.62 79.9001 81.2339 101.437C79.2349 106.58 69.0213 116.307 68.8433 119.528C68.5152 125.477 78.0758 130.792 73.3743 143.055C70.4494 150.682 53.1819 161.183 54.0992 168.607C54.8794 174.941 71.691 167.153 78.9892 171.668C86.2875 176.183 88.6448 199.957 98.8125 187.885C103.069 182.832 95.013 171.399 95.0394 164.58C85.2762 164.872 70.2623 152.984 78.9891 143.451C85.948 135.843 96.0967 143.389 102.886 138.355C104.164 137.415 106.519 132.776 108.021 130.842C109.254 129.254 113.263 126.463 113.404 126.131C113.797 125.245 108.062 119.586 112.736 113.261C117.672 106.553 124.124 110.614 130.493 109.589C138.926 108.235 142.783 102.28 147.276 95.8483C161.583 100.559 175.756 96.8779 188.996 90.6442C188.056 87.3692 184.055 91.6974 183.336 91.8488C177.485 93.0805 170.107 95.3177 164.42 95.8307L164.4 95.8612ZM112.597 197.625C91.9751 213.713 63.7374 215.645 48.4564 191.789C22.6872 151.58 77.9794 113.566 67.3799 82.8584C66.6126 80.6521 64.9782 76.8919 62.2405 76.5869C74.0754 100.839 49.4032 123.212 39.5579 143.885C17.0841 191.092 50.5187 237.685 102.694 221.967C111.996 219.167 119.879 213.324 128.23 208.699L112.597 197.625Z" fill="#2898FF"/>
</svg>
