<svg xmlns="http://www.w3.org/2000/svg" width="162" height="50" fill="none"><path fill="#fff" d="M9.43 7.325q0-3.249 2.692-5.287Q14.846 0 19.238 0q4.423 0 7.212 2.134 2.82 2.133 2.82 4.458a.7.7 0 0 1-.224.51.62.62 0 0 1-.449.191h-6.41q-.738 0-1.346-.541-.609-.542-1.635-.542-1.539 0-1.539.892 0 .477.737.796.77.318 2.821.573 4.777.606 6.795 2.23 2.052 1.592 2.052 4.872 0 3.249-3.013 5.319-2.98 2.038-7.821 2.038t-7.597-1.975-2.756-4.808q0-.287.192-.478a.7.7 0 0 1 .513-.223h6.09q.673 0 1.474.637.834.636 2.276.637 2.404 0 2.404-.892 0-.573-.865-.86-.866-.319-3.27-.637-8.27-1.083-8.27-7.006M51.09.318h5.063q.354 0 .61.255.255.255.256.605v20.574a.82.82 0 0 1-.256.605.84.84 0 0 1-.61.255h-5.801a.84.84 0 0 1-.61-.255.82.82 0 0 1-.256-.605v-8.726l-2.115 3.439q-.513.796-1.186.796h-2.244q-.673 0-1.186-.796l-2.115-3.44v8.727a.82.82 0 0 1-.257.605.84.84 0 0 1-.609.255h-5.801a.84.84 0 0 1-.61-.255.82.82 0 0 1-.256-.605V1.178q0-.35.257-.605a.83.83 0 0 1 .609-.255h5.064q.898 0 1.378.86l4.648 7.644 4.648-7.644q.48-.86 1.378-.86M68.59 22.612h-6.54a.84.84 0 0 1-.609-.255.82.82 0 0 1-.256-.605V1.178q0-.35.256-.605a.84.84 0 0 1 .61-.255h6.538q.352 0 .61.255.256.255.256.605v20.574a.82.82 0 0 1-.257.605.84.84 0 0 1-.609.255M81.753 16.083h8.879q.352 0 .609.255.255.255.256.605v4.809a.82.82 0 0 1-.256.605.84.84 0 0 1-.61.255H74.478a.84.84 0 0 1-.609-.255.82.82 0 0 1-.256-.605V1.178q0-.35.256-.605a.84.84 0 0 1 .61-.255h6.41q.352 0 .609.255.256.255.256.605zM101.8 22.612h-6.538a.84.84 0 0 1-.61-.255.82.82 0 0 1-.256-.605V1.178q0-.35.257-.605a.83.83 0 0 1 .609-.255h6.538q.353 0 .609.255.257.255.257.605v20.574a.83.83 0 0 1-.257.605.84.84 0 0 1-.609.255M120.349.318h5.802q.353 0 .609.255t.256.605v20.574a.82.82 0 0 1-.256.605.84.84 0 0 1-.609.255h-5.064q-.834 0-1.315-.733l-5.417-8.121v7.994a.82.82 0 0 1-.256.605.84.84 0 0 1-.609.255h-5.802a.84.84 0 0 1-.609-.255.82.82 0 0 1-.256-.605V1.178q0-.35.256-.605a.84.84 0 0 1 .609-.255h5.065q.897 0 1.314.733l5.417 8.822V1.178q0-.35.256-.605a.84.84 0 0 1 .609-.255M142.683 9.172h8.814q.352 0 .609.255t.257.605v4.14q0 4.203-3.013 6.497-3.013 2.26-8.046 2.26-5 0-7.885-2.196-2.884-2.23-2.884-6.657v-5.35q0-4.236 2.949-6.465Q136.432.001 141.337 0q4.935 0 7.981 2.07 3.045 2.038 3.045 5.032 0 .286-.225.51a.65.65 0 0 1-.48.19h-7.084q-.64 0-.93-.35-.641-.828-.961-.955-.738-.287-1.346-.287-2.469 0-2.469 2.389v5.414q0 2.707 2.629 2.707 2.692 0 2.692-2.293h-1.506a.84.84 0 0 1-.609-.255.83.83 0 0 1-.257-.605v-3.535q0-.35.257-.605a.84.84 0 0 1 .609-.255M8.935 27.389h6.955q1.154 0 1.443 1.05l7.148 20.319q.03.096.031.318 0 .192-.224.414a.65.65 0 0 1-.48.191h-5.93q-.962 0-1.25-.796l-.77-2.102H8.967l-.77 2.102q-.287.797-1.25.797h-5.93a.77.77 0 0 1-.512-.192q-.192-.222-.192-.414 0-.222.032-.318l7.147-20.319q.289-1.05 1.443-1.05M10.6 40.573h3.622l-1.827-5.923zM48.91 48.63a.8.8 0 0 1 .096.415q0 .223-.224.445a.65.65 0 0 1-.481.191h-7.212q-.865 0-1.314-.732l-2.789-4.267-2.66 4.267q-.45.733-1.314.733h-6.988a.77.77 0 0 1-.513-.192q-.192-.222-.192-.445 0-.255.096-.414l6.731-10.35-6.058-9.841a.9.9 0 0 1-.096-.415q0-.222.192-.413a.7.7 0 0 1 .513-.223h6.956q.897 0 1.346.796l2.244 3.885 2.436-3.885q.448-.796 1.346-.796h6.635q.288 0 .48.223.225.191.225.445a.73.73 0 0 1-.096.383l-6.186 9.745zM53.679 29.427q2.949-2.357 7.789-2.357t7.757 2.389q2.949 2.356 2.949 6.656v4.968q0 4.363-2.917 6.656-2.885 2.26-7.79 2.261-4.903 0-7.82-2.261-2.885-2.293-2.885-6.656v-4.968q0-4.332 2.917-6.688m6.058 13.726q.64.637 1.73.637t1.732-.637.64-1.943v-5.35q0-1.274-.64-1.911-.642-.669-1.731-.669-1.09 0-1.731.669-.64.638-.641 1.91v5.351q0 1.305.641 1.943M83.835 43.153h8.879q.353 0 .609.255.255.255.256.605v4.809a.82.82 0 0 1-.256.605.83.83 0 0 1-.61.255H76.56a.83.83 0 0 1-.61-.255.82.82 0 0 1-.256-.605V28.248q0-.35.257-.605a.84.84 0 0 1 .609-.255h6.41q.354 0 .61.255.255.255.256.605zM98.754 29.427q2.948-2.357 7.788-2.357t7.757 2.389q2.949 2.356 2.949 6.656v4.968q0 4.363-2.917 6.656-2.884 2.26-7.789 2.261-4.904 0-7.82-2.261-2.886-2.293-2.885-6.656v-4.968q0-4.332 2.916-6.688m6.058 13.726q.64.637 1.73.637t1.731-.637q.642-.637.641-1.943v-5.35q0-1.274-.641-1.911-.64-.669-1.731-.669-1.09 0-1.73.669-.642.638-.642 1.91v5.351q0 1.305.642 1.943M120.511 27.389h18.784q.353 0 .609.254.256.255.256.605v5.128a.83.83 0 0 1-.256.605.84.84 0 0 1-.609.255h-5.321v14.586a.82.82 0 0 1-.257.605.84.84 0 0 1-.609.255h-6.41a.84.84 0 0 1-.609-.255.82.82 0 0 1-.257-.605V34.236h-5.321a.84.84 0 0 1-.609-.255.83.83 0 0 1-.256-.605v-5.128q0-.35.256-.605a.84.84 0 0 1 .609-.255M151.353 43.153h8.878q.352 0 .609.255t.257.605v4.809a.82.82 0 0 1-.257.605.84.84 0 0 1-.609.255h-16.154a.84.84 0 0 1-.609-.255.82.82 0 0 1-.257-.605V28.248q0-.35.257-.605a.84.84 0 0 1 .609-.255h6.41q.353 0 .609.255.257.255.257.605z"/></svg>