<svg xmlns="http://www.w3.org/2000/svg" width="96" height="50" fill="none"><path fill="#fff" d="M19.645 1.065c1.082.298 2.566.965 3.898 2.078 1.316 1.1 2.64 2.775 3.063 5.092v.004l.002.005.034.206.002.01c.223 1.445.795 2.933 1.46 4.084.05.068.093.138.122.187.056.097.12.22.187.36.134.28.285.653.404 1.075.23.815.378 1.958-.141 2.963l-.266.516-.56-.16c-.547-.155-1.069-.556-1.528-1.031-.473-.49-.942-1.124-1.374-1.845a16.1 16.1 0 0 1-1.968-5.207v-.004l-.001-.005-.06-.352v-.005l-.002-.005c-.198-1.289-.924-2.28-1.796-3.007a7.3 7.3 0 0 0-1.546-.982c.017.303.043.634.078.971.085.812.224 1.61.425 2.162l.004.01.003.01.05.15.003.01.003.01c.291.972.103 1.954-.102 2.855-.215.94-.465 1.86-.498 2.927v.085c.01.412.19.889.511 1.48.159.291.339.588.532.906.19.313.393.645.58.983.372.67.72 1.43.815 2.246.098.845-.078 1.714-.68 2.571l-.005.008-.006.008-.05.066-.004.006-.004.005c-.795 1.025-2.088 1.044-3.25.788-1.195-.263-2.56-.877-3.874-1.535-.662-.333-1.328-.686-1.964-1.022a69 69 0 0 0-1.814-.935 14 14 0 0 0-1.5-.652c-.389-.137-.663-.192-.84-.197h-.07c-.696.04-1.225.47-1.629 1.133-.17.278-.304.58-.41.877a5 5 0 0 1 .413-.06c.637-.061 1.483.002 2.087.604.49.49.92.955 1.354 1.7.423.726.84 1.696 1.35 3.188l.037.1.035.088c.376.905 1.214 1.69 2.217 2.319a11.1 11.1 0 0 0 2.815 1.244l.903.243-.478.802c-2.386 4.006-6.307 4.518-8.048 4.242l-.127-.02-.112-.063c-1.89-1.065-2.866-.847-3.354-.504-.264.186-.467.462-.611.774 1.55-.258 2.963.407 4.152 1.215.758.514 1.484 1.126 2.13 1.653.667.543 1.242.987 1.763 1.255l.072.035c.35.16.853.24 1.492.226.632-.013 1.344-.116 2.073-.274a22 22 0 0 0 3.811-1.233l.804 1.13c-.09.097-.216.354-.3.849-.078.467-.104 1.047-.082 1.673.044 1.257.27 2.598.536 3.429l.038.104c.203.516.706 1.07 1.347 1.576a9.6 9.6 0 0 0 1.728 1.084l1.428.676-1.456.614c-1.578.666-3.13.331-4.31-.327-1.149-.642-2.07-1.662-2.364-2.577l-.003-.008-.067-.221-.002-.004v-.004c-.258-.876-.455-1.957-.562-3.036-.845.172-1.77.302-2.68.309-.93.007-2.12-.11-3.225-.677l-.008-.004-.16-.084-.008-.005c-.857-.468-1.654-1.11-2.25-1.595-.726-.592-1.283-1.062-1.868-1.459-.59-.4-.952-.551-1.18-.597a.58.58 0 0 0-.387.037l-.052.024L0 41.837l.324-5.33c.074-1.22.57-3.386 2.471-4.726 2.017-1.42 4.448-1.157 6.736-.038.28-.01.647-.058 1.055-.184-1.182-.871-2.455-2.151-3.065-3.929l-.175-.5-.141-.385c-.317-.846-.549-1.332-.732-1.646a3 3 0 0 0-.226-.343l-.056.023-4.982 2.306.655-5.436.023-.178c.132-.912.475-2.173 1.178-3.33.738-1.212 2.145-2.702 4.418-2.918h.007l.006-.001.193-.015.014-.001h.014l.149-.006h.013c.87-.015 1.671.223 2.213.414l.242.088c.566.213 1.143.48 1.687.746.472.232.964.488 1.45.743l.482.255h.002l.058.031.933.491q.461.24.914.468 1.13.567 1.948.881c-.143-.251-.3-.506-.493-.826a22 22 0 0 1-.639-1.101c-.37-.698-.878-1.79-.905-3.089v-.254l.001-.01c.048-1.564.44-2.98.608-3.727.1-.449.132-.695.14-.824l.001-.066-.05-.143-.001-.004-.002-.005c-.317-.949-.476-2.026-.565-2.863a24 24 0 0 1-.132-2.4V0zM79.542 4.006l-.002.228c-.008.564-.044 1.35-.131 2.171-.088.837-.247 1.914-.565 2.863l-.001.005-.052.147q0 .019.002.066c.007.129.04.375.14.824.162.724.535 2.075.602 3.581l.005.147v.017l.002.228v.018000000000000002c-.027 1.299-.535 2.391-.906 3.089-.212.399-.445.784-.638 1.101-.194.32-.35.575-.494.826q.818-.315 1.949-.881a94 94 0 0 0 1.847-.959l.058-.03.001-.002a76 76 0 0 1 1.932-.997c.622-.305 1.288-.609 1.93-.834l.215-.073c.528-.173 1.237-.354 1.997-.341h.014l.148.006h.015l.014.001.192.015h.014c2.272.217 3.68 1.707 4.417 2.92.75 1.233 1.091 2.586 1.202 3.507l.654 5.436-4.981-2.306-.056-.023c-.08.105-.15.214-.227.343-.209.36-.482.942-.872 2.031l-.175.5c-.61 1.778-1.884 3.058-3.066 3.929.408.125.775.175 1.055.183 2.288-1.118 4.72-1.38 6.736.04 1.903 1.339 2.398 3.506 2.472 4.725l.323 5.33-4.77-2.428a.6.6 0 0 0-.438-.06c-.228.045-.59.195-1.18.596-.586.397-1.142.867-1.869 1.459-.596.484-1.393 1.127-2.25 1.595l-.008.005-.16.084-.007.004c-1.105.567-2.295.684-3.225.677-.912-.007-1.836-.137-2.68-.31-.107 1.08-.304 2.16-.562 3.037l-.001.004-.001.004-.068.22-.003.01c-.293.914-1.215 1.934-2.364 2.576-1.18.658-2.732.993-4.31.327l-1.456-.614 1.429-.677a9.6 9.6 0 0 0 1.728-1.083c.64-.506 1.143-1.06 1.347-1.576l.037-.104c.266-.83.493-2.172.536-3.428.022-.628-.003-1.207-.082-1.674-.084-.495-.21-.752-.3-.849l.804-1.13a22 22 0 0 0 3.812 1.233c.729.158 1.44.261 2.073.274.638.014 1.14-.066 1.491-.226l.073-.035c.52-.268 1.095-.712 1.762-1.255.647-.527 1.373-1.139 2.13-1.653 1.19-.808 2.602-1.473 4.152-1.215-.144-.312-.346-.588-.61-.774-.488-.343-1.464-.56-3.355.504l-.111.063-.127.02c-1.741.276-5.662-.236-8.049-4.242l-.478-.802.904-.243a11.1 11.1 0 0 0 2.815-1.244c1.035-.649 1.895-1.464 2.252-2.407l.035-.099c.512-1.492.928-2.463 1.352-3.19.434-.744.863-1.21 1.354-1.699.604-.602 1.45-.665 2.087-.604q.21.021.412.06a4.8 4.8 0 0 0-.41-.877c-.39-.643-.9-1.066-1.563-1.128l-.065-.005c-.171-.01-.466.041-.91.197a14 14 0 0 0-1.5.652c-.566.277-1.175.598-1.814.935-.637.336-1.302.689-1.965 1.021-1.313.66-2.678 1.273-3.874 1.536-1.162.256-2.454.237-3.25-.788l-.004-.005-.004-.006-.05-.066-.005-.008-.006-.008c-.602-.857-.778-1.726-.68-2.572.096-.816.444-1.575.815-2.245.187-.338.39-.67.58-.983.194-.318.374-.615.532-.906.322-.591.501-1.068.512-1.48v-.085c-.034-1.068-.284-1.986-.498-2.927-.205-.901-.394-1.883-.103-2.856l.003-.01.004-.01.05-.15.003-.009.003-.01c.202-.553.34-1.35.425-2.162.036-.337.061-.668.079-.97a7.3 7.3 0 0 0-1.546.98c-.872.729-1.598 1.72-1.797 3.008v.005l-.002.005-.06.352v.009000000000000001a16.1 16.1 0 0 1-1.969 5.207c-.432.721-.9 1.355-1.374 1.845-.459.475-.98.876-1.527 1.032l-.56.16-.266-.517c-.52-1.005-.371-2.148-.142-2.963.12-.422.27-.795.404-1.075a5 5 0 0 1 .188-.36c.028-.049.07-.119.12-.187.666-1.151 1.238-2.638 1.462-4.085l.001-.01.035-.205v-.005l.002-.004c.422-2.317 1.746-3.992 3.063-5.092 1.332-1.113 2.816-1.78 3.898-2.078L79.542 0zM48.163 40.591c.67.681 1.842 1.714 3.15 2.571 1.337.876 2.691 1.484 3.758 1.484 2.152 0 4.38-.48 6.062-1.24.841-.38 1.515-.816 1.974-1.268.458-.453.657-.875.674-1.245v-.054h1.42l-.001.102c-.048 1.554-1.166 3.072-2.891 4.167-1.75 1.111-4.223 1.86-7.238 1.86-4.417 0-6.537-.905-7.415-1.454-.86.537-2.909 1.417-7.137 1.454h-.277c-3.018 0-5.492-.75-7.243-1.863-1.723-1.095-2.84-2.612-2.886-4.165l-.002-.1h1.42v.045l.005.07c.036.355.236.753.666 1.179.458.453 1.131.89 1.973 1.27 1.683.76 3.913 1.242 6.067 1.242l.1-.002c1.05-.036 2.363-.634 3.657-1.482a20.4 20.4 0 0 0 3.15-2.57l.507-.516zM31.445 28.62c1.929-.515 3.719.038 4.575 1.358.884 1.362.563 3.192-1.024 4.774l-.066.066-.081.047c-2.028 1.164-3.525 1.457-4.65 1.227-1.085-.22-1.676-.895-1.987-1.397l-.059-.098c-.195-.337-.306-.814-.331-1.306a4.6 4.6 0 0 1 .237-1.709c.42-1.234 1.432-2.44 3.386-2.962M59.292 29.978c.857-1.32 2.647-1.873 4.575-1.358 1.954.522 2.967 1.728 3.386 2.962.205.602.265 1.198.238 1.709-.024.461-.122.91-.296 1.242l-.035.064c-.294.508-.89 1.26-2.046 1.495-1.125.23-2.622-.063-4.65-1.227l-.082-.047-.066-.066c-1.586-1.582-1.908-3.412-1.024-4.774"/></svg>