<svg width="70" height="70" viewBox="0 0 70 70" fill="none" xmlns="http://www.w3.org/2000/svg">
<path d="M67.8125 35C67.8125 20.6719 58.7344 8.53125 45.9375 4.04688V65.9531C58.7344 61.4687 67.8125 49.3281 67.8125 35Z" fill="#EC1C24"/>
<path d="M2.1875 35C2.1875 49.3281 11.375 61.4687 24.0625 65.9531V4.04688C11.375 8.53125 2.1875 20.6719 2.1875 35Z" fill="#128807"/>
<path d="M45.9375 4.04688C42.5469 2.84375 38.8281 2.1875 35 2.1875C31.1719 2.1875 27.4531 2.84375 24.0625 4.04688V65.9531C27.4531 67.1562 31.1719 67.8125 35 67.8125C38.8281 67.8125 42.5469 67.1562 45.9375 65.9531V4.04688Z" fill="white"/>
<path d="M44.5155 34.6719C44.4061 34.3438 44.2967 34.7812 44.2967 34.8906C44.2967 34.5625 44.1873 34.3438 43.9686 34.0156C43.6405 34.3438 43.5311 34.7813 43.5311 35.2188C43.4217 34.8906 43.3123 34.5625 42.9842 34.4531C43.203 34.7812 43.0936 35 43.0936 35.3281C43.0936 35.7656 43.4217 36.0938 43.4217 36.5313C43.4217 36.9688 43.203 37.2969 42.8748 37.625V37.2969C41.7811 37.7344 41.9998 38.2813 41.9998 39.2656C41.9998 40.25 41.453 40.0312 40.7967 40.5781C40.9061 40.3594 40.9061 40.0313 40.7967 39.8125C40.7967 40.4688 39.9217 40.4687 39.8123 41.0156C39.703 41.2344 39.8123 41.6719 39.4842 41.7813C39.2655 41.8906 38.9373 42.1094 38.9373 42.3281C38.7186 42.2188 38.4998 42.2187 38.1717 42.2187C38.2811 42.1094 38.3905 42.1094 38.4998 42C37.4061 41.4531 37.078 42.6562 36.0936 42.7656C35.7655 42.7656 34.9998 42.3281 34.9998 42.7656C35.9842 42.7656 36.4217 43.6406 37.1873 43.6406C37.8436 43.6406 38.3905 43.0938 39.0467 43.0938C38.9373 43.0938 38.6092 42.875 38.2811 42.875C38.828 42.5469 39.1561 41.8906 39.8123 41.8906C40.9061 41.8906 41.453 41.6719 41.7811 40.5781C41.6717 40.5781 41.5623 40.5781 41.453 40.6875C41.453 40.25 41.8905 39.7031 42.328 39.4844C43.4217 39.2656 43.3123 38.3906 43.9686 37.625C43.7498 37.625 43.5311 37.7344 43.3123 37.9531C43.3123 37.2969 43.203 36.6406 43.7498 36.2031C44.8436 35.6562 44.7342 35.4375 44.5155 34.6719ZM25.4842 34.6719C25.2655 35.5469 25.1561 35.7656 26.0311 36.3125C26.6873 36.75 26.4686 37.4062 26.4686 38.0625C26.2498 37.8437 26.1405 37.7344 25.8123 37.7344C26.4686 38.3906 26.3592 39.375 27.453 39.5938C27.7811 39.8125 28.328 40.3594 28.328 40.7969C28.2186 40.7969 28.1092 40.6875 27.9998 40.6875C28.328 41.7813 28.8748 42 29.9686 42C30.6248 42 30.953 42.6562 31.4998 42.9844C31.1717 42.9844 30.8436 43.0937 30.7342 43.2031C31.3905 43.2031 31.9373 43.8594 32.5936 43.75C33.3592 43.75 33.9061 42.875 34.7811 42.875C34.7811 42.4375 34.0155 42.875 33.6873 42.875C32.8123 42.6563 32.4842 41.5625 31.2811 42C31.3905 42.1094 31.4998 42.2187 31.6092 42.2187C31.3905 42.2187 31.0623 42.1094 30.8436 42.3281C30.7342 42.1094 30.5155 41.8906 30.2967 41.7813C30.078 41.5625 30.078 41.2344 29.9686 41.0156C29.7498 40.4687 28.9842 40.3594 28.9842 39.8125C28.8748 40.0313 28.8748 40.3594 28.9842 40.5781C28.328 40.0312 27.7811 40.25 27.7811 39.2656C27.7811 38.3906 27.9998 37.7344 26.9061 37.2969V37.625C26.578 37.2969 26.3592 37.0781 26.3592 36.5313C26.3592 36.0938 26.7967 35.7656 26.6873 35.3281C26.6873 35 26.578 34.7812 26.7967 34.4531C26.4686 34.5625 26.3592 34.8906 26.2498 35.2188C26.2498 34.7813 26.1405 34.3438 25.8123 34.0156C25.703 34.2344 25.5936 34.5625 25.4842 34.8906C25.5936 34.6719 25.4842 34.3438 25.4842 34.6719Z" fill="#128807"/>
<path d="M37.9531 41.2344C37.7344 41.2344 37.625 41.0156 37.5156 40.9063C37.5156 40.6875 38.3906 40.4688 38.5 40.4688V40.25C37.0781 40.6875 32.8125 41.0156 31.9375 39.4844C31.5 40.1406 30.7344 39.7031 29.9688 39.1562C30.0781 39.375 30.5156 40.4688 30.5156 40.3594C30.7344 40.4688 32.1563 40.7969 32.1563 41.125L31.8281 41.4531C34.125 42.2188 35.5469 42.4375 37.9531 41.2344Z" fill="#428BC1"/>
<path d="M36.5313 41.2344C36.6406 41.125 36.6406 41.0156 36.6406 40.7969L36.5313 40.4688C36.75 40.25 36.5312 39.7031 36.2031 39.8125C35.9844 39.9219 36.0937 39.9219 35.875 39.8125C35.7656 39.8125 35.7656 39.7031 35.6562 39.7031H33.6875C33.4687 39.7031 33.4687 39.5938 33.25 39.5938C33.0312 39.4844 32.9219 39.7031 32.8125 39.8125C32.8125 40.0313 32.9219 40.0313 32.9219 40.1406C32.9219 40.25 32.8125 40.3594 32.8125 40.5781C32.8125 40.7969 32.9219 40.9063 33.0313 41.0156C32.5938 41.3438 33.0313 41.8906 33.4688 41.5625C33.5781 41.7813 33.9062 41.7813 34.2344 41.7813H35.4375C35.6563 41.7813 36.0937 41.8906 36.2031 41.5625C36.5312 42.1094 36.9688 41.4531 36.5313 41.2344Z" fill="#EC1C24"/>
<path d="M40.0317 38.3907C39.1567 37.297 38.7192 38.9376 37.7348 38.8282C37.9535 37.5157 35.9848 37.9532 35.4379 38.2813C35.5473 38.172 35.6567 37.9532 35.766 37.7345C35.3285 37.7345 34.7817 37.9532 34.4535 37.6251C33.7973 37.1876 32.9223 36.9688 32.3754 37.7345C31.9379 37.0782 30.7348 36.422 30.0785 37.0782C30.0785 36.422 29.4223 35.4376 28.6567 35.547C27.7817 35.6563 28.1098 36.7501 28.5473 37.1876C28.8754 37.5157 29.3129 37.6251 29.7504 37.6251C29.7504 37.8438 29.8598 37.9532 29.9692 38.0626C30.516 38.5001 31.6098 38.6095 32.1567 38.172C32.1567 39.2657 34.3442 39.2657 34.891 38.7188C34.6723 39.2657 34.4535 40.3595 35.2192 40.3595C35.8754 40.3595 35.6567 39.7032 36.2035 39.4845C36.641 39.2657 37.1879 39.1563 37.6254 39.3751C38.391 39.8126 40.7973 39.7032 40.0317 38.3907Z" fill="#428BC1"/>
<path d="M31.0623 35.6564C30.9529 35.4376 30.7342 35.2189 30.7342 35.2189C30.2967 35.3282 30.2967 35.0001 30.1873 34.672C30.0779 34.1251 29.3123 33.9064 29.3123 33.4689C29.3123 33.0314 29.7498 32.5939 29.4217 32.1564C29.0936 31.7189 28.5467 31.5001 28.5467 31.7189C28.4373 31.9376 28.9842 31.9376 28.9842 32.4845C28.9842 33.1407 28.3279 33.6876 29.0936 34.2345C29.5311 34.8907 29.5311 36.0939 30.2967 36.0939C30.6248 36.0939 30.9529 35.9845 31.0623 35.6564Z" fill="#128807"/>
<path d="M32.7027 35.1094C32.4839 34.6719 32.7027 34.0157 32.2652 33.6876C31.7183 33.2501 30.6246 34.1251 30.5152 33.0313C30.5152 32.8126 31.7183 31.5001 31.9371 31.3907C32.2652 30.9532 32.1558 30.1876 31.8277 29.9688C31.3902 29.7501 31.2808 29.9688 30.9527 30.4063C31.0621 30.5157 31.4996 30.7344 31.4996 30.8438C31.1714 31.6094 30.1871 31.7188 29.9683 32.4844C29.7496 33.0313 29.8589 33.9063 30.4058 34.2344C30.7339 34.4532 30.9527 34.4532 31.2808 34.4532C32.2652 34.3438 31.7183 34.5626 31.8277 34.7813C31.8277 35.0001 32.1558 35.7657 32.7027 35.1094ZM29.4214 29.7501C29.4214 30.4063 30.0777 30.2969 30.5152 30.1876C30.5152 29.9688 30.5152 29.7501 30.6246 29.5313C30.4058 29.6407 30.0777 29.6407 29.9683 29.5313C29.6402 29.3126 30.7339 28.8751 30.6246 28.8751C30.6246 28.8751 29.5308 29.4219 29.9683 28.7657C30.0777 28.5469 30.2964 28.3282 30.4058 28.1094C30.5152 27.8907 30.0777 28.1094 30.0777 28.1094C29.9683 28.1094 29.8589 28.1094 29.7496 28.2188C29.0933 28.7657 29.3121 29.0938 29.4214 29.7501Z" fill="#128807"/>
<path d="M41.0161 29.75C40.4692 28.9844 38.3911 26.4688 35.438 26.25C35.1099 26.25 34.2349 26.5781 33.9067 26.6875C32.9224 27.3437 35.0005 27.8906 35.1099 28.3281C35.1099 28.5469 35.2192 28.6562 35.2192 28.875C34.8911 28.3281 34.563 28 34.4536 27.7812C33.9067 28 33.0317 27.6719 32.9224 27.125C32.813 27.3437 32.813 27.4531 32.5942 27.6719C32.5942 27.3437 32.4849 27.3437 32.3755 27.125C32.3755 27.4531 32.3755 27.8906 32.0474 28C32.1567 27.7813 32.0474 27.5625 31.938 27.3438C31.938 27.6719 31.938 27.8906 31.7192 28.1094C31.8286 27.8906 31.6099 27.7813 31.6099 27.5625C31.5005 28.4375 30.2974 28.7656 31.5005 29.0938C31.938 29.2031 32.1567 29.0937 32.5942 29.3125C32.7036 29.4219 32.9224 29.6406 32.9224 29.5313C32.9224 29.6406 32.4849 30.0781 32.813 30.1875C32.7036 30.2969 32.3755 30.9531 32.3755 30.9531C32.7036 30.9531 32.4849 31.1719 32.2661 31.3906C31.938 31.9375 32.2661 32.4844 32.3755 33.1406C32.3755 32.9219 32.7036 33.25 32.7036 33.5781C32.7036 34.0156 33.1411 34.2344 33.2505 34.5625C32.7036 34.0156 32.5942 34.5625 33.2505 34.8906C32.7036 34.8906 32.5942 35.2188 33.1411 35.4375C31.8286 35.4375 32.9224 35.9844 33.1411 36.0938C34.0161 36.3125 34.6724 35.6563 34.6724 35.5469C34.6724 35.5469 36.4224 37.2969 36.5317 37.2969C36.6411 37.2969 37.5161 36.8594 37.7349 37.0781C37.9536 37.4063 38.1724 37.0781 38.3911 37.1875C38.6099 37.4063 39.4849 37.1875 39.7036 37.0781C39.813 37.0781 40.9067 36.8594 40.688 36.6406C40.1411 36.2031 39.4849 35.7656 38.938 35.3281C38.3911 34.8906 37.8442 34.5625 37.4067 34.125C37.188 33.9063 37.188 33.4687 37.0786 33.1406C38.063 34.125 39.0474 34.6719 38.938 32.8125C39.5942 33.3594 40.9067 36.4219 41.0161 36.4219C41.3442 36.4219 41.0161 33.1406 41.0161 32.8125C41.4536 33.25 41.4536 36.8594 41.563 36.8594C42.1099 36.9688 42.8755 32.1563 41.0161 29.75Z" fill="#89664C"/>
<path d="M33.1406 35.3281C33.0312 35.3281 32.4844 34.5625 32.4844 34.4531C32.8125 35.7656 31.5 35 31.8281 34.4531C31.3906 34.3437 30.2969 35 30.7344 35.6562C30.5156 36.0937 32.2656 35.7656 32.375 35.5468C32.8125 36.5312 33.9062 35.4375 33.1406 35.3281ZM38.2813 38.6093C38.8281 37.8437 36.5312 37.625 36.75 36.75C36.4219 36.9687 35.9844 37.7343 35.5469 37.5156C35.3281 37.4062 34.4531 37.9531 34.8906 38.2812C34.8906 37.8437 35.1094 38.1718 35.4375 38.0625C35.3281 38.3906 35 38.7187 35.5469 38.9375C35.3281 38.2812 36.2031 38.6093 36.0938 38.2812C35.875 38.0625 36.8594 38.0625 36.9688 38.0625C37.2969 38.0625 38.3906 38.3906 37.9531 38.7187C37.9531 38.7187 38.1719 38.7187 38.2813 38.6093ZM30.9531 29.2031C30.8437 29.4218 30.4062 29.75 30.4062 30.0781C30.4062 30.2968 30.9531 30.8437 31.1719 30.5156C30.5156 30.0781 31.2813 29.75 31.6094 29.75C31.7188 29.75 31.7188 29.9687 31.7188 29.9687C31.8281 30.0781 32.7031 29.75 32.5938 29.5312C32.7031 29.0937 31.2813 29.0937 30.9531 29.2031Z" fill="#FFCE31"/>
</svg>
