<svg width="60" height="60" viewBox="0 0 60 60" fill="none" xmlns="http://www.w3.org/2000/svg">
<path d="M43.8903 13.5858L43.9734 13.6264C44.5244 13.8958 44.9458 14.373 45.1449 14.9531C45.3441 15.5332 45.3046 16.1686 45.0352 16.7196C44.7658 17.2706 44.2886 17.692 43.7085 17.8911C43.1284 18.0903 42.493 18.0508 41.942 17.7814C38.3632 16.0317 35.6403 14.7004 33.386 13.8145C31.1263 12.9259 29.5843 12.5839 28.3519 12.6266C25.7899 12.7341 23.3276 13.6495 21.3177 15.2418C20.2578 16.0758 19.2838 17.2676 18.0939 19.2874C16.893 21.3224 15.5739 24.0204 13.7375 27.7765L13.5885 28.0812L18.2077 26.4956C18.781 26.3212 19.3995 26.3761 19.9331 26.6487C20.4667 26.9213 20.8736 27.3904 21.0681 27.9572C21.2627 28.5239 21.2296 29.144 20.976 29.6869C20.7224 30.2297 20.2679 30.6529 19.7084 30.8673L9.81014 34.2651C9.51385 34.3666 9.20001 34.407 8.88766 34.3836C8.57531 34.3603 8.27096 34.2737 7.99307 34.1292C7.71518 33.9847 7.46956 33.7852 7.27109 33.5429C7.07262 33.3005 6.92544 33.0204 6.83849 32.7195L4.07509 23.1314C3.92262 22.5477 4.00425 21.9276 4.30258 21.4033C4.60091 20.879 5.09232 20.492 5.67197 20.3249C6.25162 20.1578 6.87362 20.2238 7.40527 20.5089C7.93692 20.7939 8.33613 21.2755 8.51773 21.8507L9.61909 25.6703L9.62586 25.6565C11.4094 22.0084 12.8084 19.147 14.1112 16.9387C15.437 14.6902 16.759 12.9409 18.468 11.6005C21.2464 9.4076 24.6472 8.14983 28.1839 8.00719C30.3688 7.92567 32.6234 8.54403 35.0811 9.51223C37.5276 10.475 40.4112 11.8848 43.8903 13.5858ZM52.1688 25.8703C52.4472 26.015 52.6933 26.2149 52.892 26.4578C53.0906 26.7007 53.2378 26.9815 53.3245 27.2831L56.0879 36.8712C56.2404 37.4548 56.1588 38.075 55.8604 38.5993C55.5621 39.1236 55.0707 39.5106 54.4911 39.6777C53.9114 39.8448 53.2894 39.7788 52.7578 39.4937C52.2261 39.2086 51.8269 38.7271 51.6453 38.1518L50.5439 34.3323L50.5372 34.3461C48.7536 37.9942 47.3546 40.8556 46.0519 43.0639C44.726 45.3124 43.4068 47.063 41.695 48.4021C38.9167 50.595 35.5158 51.8528 31.9792 51.9954C29.7942 52.0769 27.5396 51.4585 25.082 50.4904C22.6354 49.5276 19.7518 48.1178 16.2755 46.4182L16.1924 46.3775C15.6414 46.1082 15.22 45.6309 15.0209 45.0508C14.8217 44.4708 14.8612 43.8353 15.1306 43.2843C15.4 42.7333 15.8772 42.3119 16.4573 42.1128C17.0374 41.9137 17.6728 41.9532 18.2238 42.2225C21.7998 43.9709 24.5228 45.3022 26.777 46.1881C29.0367 47.0767 30.5787 47.4187 31.8125 47.3732C34.3737 47.2662 36.8354 46.3518 38.8454 44.7608C39.9052 43.9268 40.8792 42.7349 42.0692 40.7152C43.27 38.6802 44.5891 35.9822 46.4255 32.2261L46.5745 31.9214L41.9553 33.507C41.3821 33.6814 40.7635 33.6265 40.2299 33.3539C39.6964 33.0813 39.2894 32.6122 39.0949 32.0454C38.9004 31.4787 38.9334 30.8586 39.187 30.3157C39.4407 29.7729 39.8951 29.3497 40.4546 29.1353L50.3529 25.7375C50.6488 25.6356 50.9623 25.5948 51.2744 25.6177C51.5866 25.6405 51.8908 25.7264 52.1688 25.8703Z" fill="#1A1A1A"/>
</svg>
