<svg width="70" height="70" viewBox="0 0 70 70" fill="none" xmlns="http://www.w3.org/2000/svg">
<path d="M52.5 7.21875C47.3594 4.04687 41.4531 2.1875 35 2.1875V7.21875H52.5Z" fill="#EC1C24"/>
<path d="M35 12.25H58.625C56.7656 10.3906 54.6875 8.64062 52.5 7.21875H35V12.25Z" fill="white"/>
<path d="M35 17.2813H62.6719C61.4687 15.4219 60.1563 13.7812 58.7344 12.25H35V17.2813Z" fill="#EC1C24"/>
<path d="M35 22.3125H65.2969C64.5313 20.5625 63.6562 18.8125 62.6719 17.2812H35V22.3125Z" fill="white"/>
<path d="M35 27.3438H66.9375C66.5 25.5938 65.9531 23.9531 65.2969 22.3125H35V27.3438Z" fill="#EC1C24"/>
<path d="M35 32.4844H67.7031C67.5938 30.7344 67.2656 29.0938 66.9375 27.4531H35V32.4844Z" fill="white"/>
<path d="M67.7031 32.4844H35V35H2.1875C2.1875 35.875 2.1875 36.6406 2.29687 37.5156H67.7031C67.8125 36.6406 67.8125 35.875 67.8125 35C67.8125 34.125 67.8125 33.25 67.7031 32.4844Z" fill="#EC1C24"/>
<path d="M3.0625 42.5469H66.9375C67.375 40.9063 67.5938 39.2656 67.7031 37.5156H2.29688C2.40625 39.1562 2.625 40.9063 3.0625 42.5469Z" fill="white"/>
<path d="M4.70313 47.5781H65.2969C65.9531 45.9375 66.5 44.2969 66.9375 42.5469H3.0625C3.5 44.2969 4.04688 45.9375 4.70313 47.5781Z" fill="#EC1C24"/>
<path d="M7.32812 52.6094H62.6719C63.6562 50.9687 64.5313 49.3281 65.2969 47.5781H4.70312C5.46875 49.3281 6.34375 50.9687 7.32812 52.6094Z" fill="white"/>
<path d="M11.2656 57.6406H58.7344C60.1562 56.1094 61.5781 54.3594 62.6719 52.6094H7.32812C8.42188 54.4688 9.84375 56.1094 11.2656 57.6406Z" fill="#EC1C24"/>
<path d="M17.3906 62.6719H52.6094C54.9062 61.25 56.875 59.5 58.7344 57.6406H11.2656C13.125 59.6094 15.2031 61.25 17.3906 62.6719Z" fill="white"/>
<path d="M35 67.8125C41.4531 67.8125 47.4687 65.9531 52.6094 62.6719H17.3906C22.5312 65.9531 28.5469 67.8125 35 67.8125Z" fill="#EC1C24"/>
<path d="M17.5 7.21875C15.2031 8.64062 13.125 10.3906 11.2656 12.25C9.73438 13.7812 8.42187 15.5313 7.32812 17.2813C6.34375 18.9219 5.35938 20.5625 4.70313 22.3125C4.04688 23.9531 3.5 25.5937 3.0625 27.3438C2.625 28.9844 2.40625 30.625 2.29687 32.375C2.1875 33.25 2.1875 34.125 2.1875 35H35V2.1875C28.5469 2.1875 22.6406 4.04687 17.5 7.21875Z" fill="#1B90E7"/>
<path d="M27.3438 3.28125L27.8906 4.92188H29.5313L28.2187 6.01562L28.6563 7.65625L27.3438 6.67187L26.0312 7.65625L26.4688 6.01562L25.1563 4.92188H26.7969L27.3438 3.28125ZM31.7188 9.84375L32.2656 11.4844H33.9063L32.5937 12.5781L33.0313 14.2188L31.7188 13.2344L30.4062 14.2188L30.8438 12.5781L29.5313 11.4844H31.1719L31.7188 9.84375ZM22.9688 9.84375L23.5156 11.4844H25.1563L23.8437 12.5781L24.2813 14.2188L22.9688 13.2344L21.6562 14.2188L22.0938 12.5781L20.7813 11.4844H22.4219L22.9688 9.84375ZM27.3438 16.4062L27.8906 18.0469H29.5313L28.2187 19.1406L28.6563 20.7812L27.3438 19.7969L26.0312 20.7812L26.4688 19.1406L25.1563 18.0469H26.7969L27.3438 16.4062ZM18.5938 16.4062L19.1406 18.0469H20.7813L19.4687 19.1406L19.9063 20.7812L18.5938 19.7969L17.2812 20.7812L17.7188 19.1406L16.4063 18.0469H18.0469L18.5938 16.4062ZM9.84375 16.4062L10.3906 18.0469H12.0312L10.7188 19.1406L11.1562 20.7812L9.84375 19.7969L8.53125 20.7812L8.96875 19.1406L7.65625 18.0469H9.29687L9.84375 16.4062ZM31.7188 22.9688L32.2656 24.6094H33.9063L32.5937 25.7031L33.0313 27.3438L31.7188 26.3594L30.4062 27.3438L30.8438 25.7031L29.5313 24.6094H31.1719L31.7188 22.9688ZM22.9688 22.9688L23.5156 24.6094H25.1563L23.8437 25.7031L24.2813 27.3438L22.9688 26.3594L21.6562 27.3438L22.0938 25.7031L20.7813 24.6094H22.4219L22.9688 22.9688ZM14.2188 22.9688L14.7656 24.6094H16.4063L15.0937 25.7031L15.5312 27.3438L14.2188 26.3594L12.9062 27.3438L13.3437 25.7031L12.0312 24.6094H13.6719L14.2188 22.9688ZM27.3438 29.5312L27.8906 31.1719H29.5313L28.2187 32.2656L28.6563 33.9062L27.3438 32.9219L26.0312 33.9062L26.4688 32.2656L25.1563 31.1719H26.7969L27.3438 29.5312ZM18.5938 29.5312L19.1406 31.1719H20.7813L19.4687 32.2656L19.9063 33.9062L18.5938 32.9219L17.2812 33.9062L17.7188 32.2656L16.4063 31.1719H18.0469L18.5938 29.5312ZM9.84375 29.5312L10.3906 31.1719H12.0312L10.7188 32.2656L11.1562 33.9062L9.84375 32.9219L8.53125 33.9062L8.96875 32.2656L7.65625 31.1719H9.29687L9.84375 29.5312ZM12.9062 14.2188L14.2188 13.2344L15.5312 14.2188L14.9844 12.5781L16.2969 11.4844H14.6562L14.2188 9.84375L13.6719 11.4844H12.1406L13.4531 12.4687L12.9062 14.2188ZM4.15625 27.3438L5.46875 26.3594L6.78125 27.3438L6.23437 25.7031L7.54688 24.6094H6.01562L5.46875 22.9688L4.92187 24.6094H3.82812C3.82812 24.7188 3.71875 24.8281 3.71875 24.9375L4.59375 25.5937L4.15625 27.3438Z" fill="white"/>
</svg>
