<svg width="623" height="573" viewBox="0 0 623 573" fill="none" xmlns="http://www.w3.org/2000/svg">
<path d="M38.2861 565.229C45.6687 563.788 51.1329 568.868 57.3193 573H42.2607C40.8378 570.696 39.5079 568.119 38.2861 565.229Z" fill="url(#paint0_radial_697_151)"/>
<path d="M148.117 277.337C150.667 271.521 194.785 250.298 202.616 256.702L202.682 256.543C204.309 257.872 209.868 292.089 210.405 298.527C213.341 334.563 205.069 363.823 208.281 401.902C209.972 421.605 196.475 421.539 217.513 446.792C220.681 450.592 230.065 448.643 235.439 458.956C245.482 478.214 232.737 492.42 233.939 501.479C234.762 507.721 245.806 509.51 248.582 514.919C255.301 527.859 250.258 550.376 244.408 573H195.688C188.605 567.854 181.884 562.137 177.683 554.506C170.61 541.656 177.958 532.386 172.468 524.306C165.91 514.586 151.685 509.116 143.665 497.247C142.44 506.803 137.663 516.56 137.771 523.02C137.892 530.311 142 537.473 141.126 546.212C140.366 553.882 132.383 562.125 132.742 568.127C132.825 569.543 133.076 571.186 133.448 573H123.438C120.718 568.98 117.843 565.399 115.258 562.6C91.3455 536.668 82.9901 557.604 61.6699 553.94C45.8558 551.238 38.26 525.009 19.3193 528.051C17.5658 522.292 30.4613 521.918 33.8594 522.091C51.3768 522.971 60.7358 549.262 80.8633 537.955C81.7391 536.58 57.6726 519.127 54.9873 518.02C48.136 515.229 34.4553 517.149 29.7832 512.568C22.3913 505.309 25.3684 495.63 21.9707 488.18C19.4627 482.665 13.2657 479.431 10.6104 471.212C6.2166 457.522 14.801 437.97 0.643555 426.362C18.9978 424.532 17.2767 449.686 21.4854 461.302C24.1836 468.742 29.5164 474.286 31.8701 481.001C36.4761 494.144 27.4809 510.413 49.9805 508.161C39.631 497.311 43.9592 482.446 39.3262 469.635C36.9507 463.104 31.349 458.274 29.1357 449.748C26.9225 441.222 30.8828 434.148 29.4316 429.159C27.6905 423.19 20.0382 417.815 18.0996 409.981C14.7825 396.546 27.6755 381.53 15.6533 360.079C12.8817 355.13 16.3899 354.061 18.9023 355.172L18.7881 355.096C22.609 356.788 30.8945 378.745 32.0947 384.09C34.0437 392.771 30.3686 403.672 32.8652 410.218C35.362 416.763 43.8902 419.209 45.9238 431.645C46.7969 437.049 43.363 441.436 43.7109 445.77C45.6517 470.944 47.2924 497.724 64.8438 517.341L71.6885 482.665C71.3796 473.945 59.8415 469.395 57.9014 456.896C57.1131 451.813 61.7226 441.746 63.0596 435.538C63.9588 431.367 62.3474 421.918 62.7139 421.315C64.8972 417.412 67.8499 419.272 69.2979 423.353C73.0106 433.652 69.5587 446.409 72.5156 454.987C74.9267 461.945 84.0077 464.806 86.1016 474.55C89.8505 491.819 76.2727 498.691 75.3506 508.357C73.7293 525.701 88.3859 536.424 102.465 541.84C100.327 533.609 101.739 524.997 102.01 516.683C102.149 512.495 96.824 509.999 105.179 508.605C117.145 527.201 101.905 544.596 120.174 558.876L127.927 533.464C114.375 512.364 131.812 495.11 132.465 477.326C132.682 471.643 126.149 451.923 135.898 463.372C137.625 465.396 138.991 467.455 140.07 469.56C141.25 465.524 142.35 461.81 141.518 458.867C140.241 454.34 130.547 448.283 127.3 441.252C112.841 409.732 130.874 410.533 131.881 396.562C132.681 385.308 121.429 372.023 125.607 351.848C128.502 337.914 140.851 331.767 143.973 319.819C147.334 306.851 143.352 288.173 148.117 277.337Z" fill="url(#paint1_radial_697_151)"/>
<path d="M157.896 567.141C160.054 563.657 163.776 568.26 164.984 570.521C165.425 571.351 165.813 572.178 166.157 573H157.777C158.036 571.02 158.108 569.058 157.896 567.141Z" fill="url(#paint2_radial_697_151)"/>
<path fill-rule="evenodd" clip-rule="evenodd" d="M570.632 0.794922C576.295 23.677 600.885 62.6449 600.779 84.4033C600.644 108.056 577.585 139.559 576.35 164.688C574.122 210.182 616.588 233.871 601.601 301.385C598.312 316.146 584.189 327.121 581.013 338.21C578.033 348.654 578.052 357.01 579.77 364.265C582.608 361.082 586.201 356.597 590.7 350.88C591.704 360.449 588.569 367.78 583.165 373.822C584.362 376.372 585.729 378.822 587.188 381.232C590.49 376.499 595.298 372.257 602.701 368.94C612.407 372.569 606.052 374.915 602.427 378.951C601.121 380.382 596.394 384.164 591.944 388.692C594.319 392.336 596.708 396.037 598.833 400.01C605.64 392.151 612.885 381.673 614.407 378.529C621.068 384.629 612.307 396.067 602.027 406.787C603.526 410.499 604.716 414.496 605.419 418.915C606.022 422.709 606.412 426.203 606.638 429.44C607.85 424.951 609.133 419.46 612.88 414.626C613.724 413.535 618.485 409.314 623 405.603V416.067C618.64 420.629 615.441 425.362 618.99 429.439C620.212 427.658 621.561 425.946 623 424.289V501.212C621.51 497.131 619.921 493.192 618.408 489.267C615.681 490.939 612.68 492.844 609.167 493.768C612.308 499.098 616.771 505.26 623 512.681V573H598.337C598.233 568.236 597.705 563.207 596.545 557.718C595.414 552.366 593.501 547.46 591.106 542.892C587.678 542.479 583.252 542.253 578.317 542.283C583.937 551.804 586.429 562.208 587.32 573H560.416C557.799 567.214 554.936 561.575 551.004 557.062C548.375 554.044 544.708 551.048 540.52 548.037C532.077 551.2 525.993 555.862 525.45 562.491C525.325 563.985 541.329 563.408 542.901 573H535.849C529.197 570.54 521.669 570.593 515.313 573H502.785C514.119 564.535 522.018 552.726 529.775 540.795C525.637 538.102 521.412 535.375 517.451 532.594C499.076 544.855 477.936 544.623 488.733 573H480.203C475.863 570.253 470.554 569.347 465.297 572.149C464.906 572.357 464.528 572.646 464.155 573H454.747C473.786 535.625 413.79 551.909 403.1 573H351.491C342 566.605 321.983 563.013 315.794 569.843C315.351 570.327 315.083 571.481 314.842 573H249.227C251.763 556.244 256.625 522.667 259.461 509.643C261.146 501.683 271.066 496.221 271.062 489.169C271.052 479.328 255.133 464.916 253.835 452.843C251.938 435.858 265.179 431.475 265.216 423.168C265.256 409.832 243.561 379.718 244.781 354.393C246.002 329.068 268.066 327.284 268.67 323.614C271.205 308.012 248.01 279.147 268.59 248.549C270.899 245.175 279.729 246.244 280.06 242.607C281.149 228.26 282.978 168.596 288.854 158.775C292.939 151.932 304.289 151.83 307.226 148.014C322.932 127.532 310.213 102.27 352.58 74.2412C403.654 40.3837 361.872 151.06 358.614 169.066C348.008 227.665 332.174 308.872 335.458 367.349C335.75 372.491 338.689 377.029 341.118 382.258C351.432 379.978 361.463 394.433 366.128 403.757C376.067 390.58 371.836 377.195 361.071 365.861L378.562 373.503L387.522 353.167C397.373 368.74 384.914 372.563 381.587 381.82C373.554 404.193 373.98 422.724 403.191 418.474L400.233 401.879L425.723 407.01C422.749 398.721 421.518 389.182 417.579 381.283C412.923 371.897 381.09 345.349 400.882 340.103L400.669 340.257C414.25 379.341 425.735 371.916 420.547 334.018C443.917 337.618 416.025 369.693 429.311 384.013C428.742 371.675 440.834 370.338 444.031 361.649C447.953 350.932 437.979 334.388 448.187 325.343C467.664 353.924 431.52 377.478 435.737 397.762C436.606 402.013 444.276 417.129 446.366 418.142C456.285 422.889 449.935 399.191 459.683 405.223C461.871 406.556 459.785 440.544 471.447 436.532C489.779 430.207 458.073 388.775 464.264 377.39C468.885 368.892 470.828 373.1 471.723 378.936C471.975 368.646 475.407 360.779 480.593 353.746C470.439 345.318 462.049 335.631 465.332 324.353C480.01 316.583 473.344 335.628 476.09 341.047C477.172 343.187 482.392 343.913 487.394 345.785C497.346 335.381 510.237 325.5 520.521 309.989C521.395 315.005 521.296 319.789 520.587 324.433C521.482 324.513 522.159 325.004 522.281 326.196L515.966 347.942L528.158 339.892C538.525 319.735 559.579 301.217 563.203 278.736C571.973 224.617 530.2 203.81 530.698 163.8C531.197 127.522 559.038 124.571 565.03 99.9766C573.746 64.1719 550.109 29.6971 570.632 0.794922ZM434.737 478.93C424.165 473.465 404.359 492.549 394.752 495.477C385.145 498.404 339.039 493.42 345.961 512.328C350.612 525.098 363.532 528.025 342.407 538.696C336.817 538.299 344.434 530.155 344.359 526.226C344.194 518.361 340.298 515.99 334.427 516.329C332.633 523.203 326.682 534.356 320.438 546.444C334.407 554.783 348.75 572.178 371.688 571.359C391.91 570.634 422.466 551.645 396.583 549.053C389.425 548.357 365.078 558.853 369.797 543.23C380.194 545.149 391.669 538.825 401.255 540.076C407.27 540.867 413.585 549.293 420.046 548.847C429.856 548.139 441.989 530.365 459.089 543.531C463.916 547.243 474.144 571.7 478.412 557.58C487.566 527.39 463.852 531.452 446.998 519.087C458.921 515.784 471.517 519.208 481.57 525.671C486.438 524.274 487.775 489.117 475.97 485.575C474.497 485.159 446.714 485.579 445.362 486.267C434.104 492.304 438.206 508.1 433.085 516.603C424.826 530.306 398.84 532.621 384.522 527.541L411.588 516.851L386.942 507.106C397.511 497.684 422.715 517.749 427.399 511.931C421.31 504.092 440.873 482.098 434.737 478.93ZM317.457 552.256C315.963 555.202 314.488 558.171 313.085 561.118L320.245 558.872C320.205 555.548 319.144 553.472 317.457 552.256ZM581.395 528.338C581.107 528.819 580.829 529.328 580.562 529.865C577.617 535.805 581.099 535.596 586.5 535.251C584.88 532.864 583.161 530.565 581.395 528.338ZM497.373 504.032C492.579 512.861 489.134 522.522 495.113 534.596C503.024 534.415 505.709 529.433 506.854 524.19C502.771 520.35 499.748 516.373 498.594 512.204C497.842 509.464 497.47 506.743 497.373 504.032ZM556.758 493.578C552.11 495.612 546.958 498.838 541.049 503.752C540.576 504.146 540.127 504.558 539.698 504.987C541.566 508.701 544.668 512.062 548.302 515.2C551.296 511.91 554.524 508.85 558.098 506.13C566.32 514.024 562.457 517.609 556.183 521.302C560.844 524.657 565.575 527.839 569.284 531.047C572.216 528.749 574.973 526.217 577.642 523.767C568.928 513.438 560.032 504.444 557.064 494.633C556.958 494.28 556.855 493.928 556.758 493.578ZM347.914 492.918C344.113 488.856 338.889 487.953 333.137 488.188C334.199 493.383 335.012 498.62 335.283 503.612C340.178 500.164 344.596 496.048 347.914 492.918ZM561.036 436.45C548.266 447.984 545.92 476.737 537.543 491.998C537.469 492.901 537.434 493.821 537.445 494.761C543.88 492.236 549.654 489.411 555.396 486.881C553.026 468.62 561.875 453.89 561.036 436.45ZM324.919 448.491C324.857 448.906 324.808 449.317 324.774 449.723C324.322 454.98 327.639 465.6 330.681 477.604C350.47 471.693 363.121 499.208 389.939 488.555C387.56 467.474 377.016 473.858 362.201 468.714L376.798 459.829C360.277 446.569 345.962 456.376 326.107 448.949C325.706 448.798 325.31 448.645 324.919 448.491ZM484.49 419.761C484.595 423.207 484.695 426.87 484.069 429.848C482.877 435.448 477.573 440.802 477.688 446.562C477.906 460.021 487.676 476.323 490.104 490.054C503.911 488.794 497.918 475.04 502.45 466.459C502.807 466.892 503.142 467.324 503.459 467.751C504.111 462.563 504.192 457.236 503.093 451.702C501.009 441.214 491.857 430.642 484.49 419.761ZM611.423 454.034C610.042 456.932 607.186 458.791 603.971 460.361C602.247 469.058 601.14 476.202 605.403 486.368C608.614 485.169 612.028 483.247 615.37 480.893C612.646 472.656 610.802 464.086 611.423 454.034ZM343.545 403.204C342.577 407.916 340.864 412.549 338.851 417.044C340.869 418.956 342.397 420.964 343.085 422.759C345.249 428.404 337.989 435.734 340.397 440.336C342.807 444.937 367.442 441.904 378.332 450.388C398.408 466.045 389.027 492.091 428.31 472.119C427.787 448.172 410.216 455.707 401.462 441.02C402.104 439.853 423.998 447.561 427.637 441.588C429.116 439.191 417.595 427.656 431.873 427.083C433.665 448.655 427.205 474.179 456.447 478.527C498.657 484.822 451.484 411.046 425.964 415.586C414.605 417.614 408.934 428.573 393.094 428.582C372.271 428.569 363.506 403.164 343.545 403.204ZM541.926 399.927C533.087 405.25 525.876 411.199 523.399 419.353C531.15 430.405 539.066 442.518 541.74 460.191C543.23 456.098 542.489 449.769 543.894 444.755C544.802 441.484 551.578 439.093 551.367 434.724C550.931 426.077 543.705 414.818 542.418 405.517L560.044 428.92C557.848 419.552 549.935 409.939 541.926 399.927ZM613.861 439.775C611.475 440.969 609.076 442.071 606.648 443.004C606.422 446.115 606.053 448.944 605.626 451.572C607.686 450.954 609.775 450.337 611.838 449.69C612.162 447.171 612.638 444.556 613.294 441.831C613.461 441.135 613.651 440.45 613.861 439.775ZM334.265 426.393C331.867 431.018 329.496 435.432 327.714 439.557C328.447 440.151 329.199 440.768 329.963 441.415C334.139 434.423 335.269 429.813 334.265 426.393ZM523.107 353.787C519.045 354.359 514.74 354.488 510.655 354.471C510.446 355.035 510.24 355.601 510.037 356.167L525.51 393.257C521.864 393.13 515.732 394.36 509.317 396.376C512.093 403.007 516.115 408.982 520.415 415.109C523.856 409.78 527.472 402.405 533.639 395.844C534.63 394.79 535.602 393.877 536.543 393.073C529.497 383.815 523.423 374.198 522.529 364.105C522.219 360.578 522.45 357.146 523.107 353.787ZM344.157 391.887C344.316 393.055 344.401 394.271 344.39 395.542C344.382 396.616 344.321 397.687 344.219 398.756L348.586 396.087L344.157 391.887ZM505.707 374.494C505.444 377.878 505.524 381.357 506.069 384.962C507.302 382.876 507.901 380.702 507.603 378.587C507.416 377.267 506.748 375.904 505.707 374.494Z" fill="url(#paint3_radial_697_151)"/>
<path d="M623 337.659C619.472 329.293 620.574 322.059 623 314.726V337.659Z" fill="url(#paint4_radial_697_151)"/>
<defs>
<radialGradient id="paint0_radial_697_151" cx="0" cy="0" r="1" gradientUnits="userSpaceOnUse" gradientTransform="translate(-329.5 94.5) rotate(90) scale(491.5 1366.98)">
<stop stop-color="#2898FF" stop-opacity="0"/>
<stop offset="1" stop-color="#2898FF"/>
</radialGradient>
<radialGradient id="paint1_radial_697_151" cx="0" cy="0" r="1" gradientUnits="userSpaceOnUse" gradientTransform="translate(-329.5 94.5) rotate(90) scale(491.5 1366.98)">
<stop stop-color="#2898FF" stop-opacity="0"/>
<stop offset="1" stop-color="#2898FF"/>
</radialGradient>
<radialGradient id="paint2_radial_697_151" cx="0" cy="0" r="1" gradientUnits="userSpaceOnUse" gradientTransform="translate(-329.5 94.5) rotate(90) scale(491.5 1366.98)">
<stop stop-color="#2898FF" stop-opacity="0"/>
<stop offset="1" stop-color="#2898FF"/>
</radialGradient>
<radialGradient id="paint3_radial_697_151" cx="0" cy="0" r="1" gradientUnits="userSpaceOnUse" gradientTransform="translate(-329.5 94.5) rotate(90) scale(491.5 1366.98)">
<stop stop-color="#2898FF" stop-opacity="0"/>
<stop offset="1" stop-color="#2898FF"/>
</radialGradient>
<radialGradient id="paint4_radial_697_151" cx="0" cy="0" r="1" gradientUnits="userSpaceOnUse" gradientTransform="translate(-329.5 94.5) rotate(90) scale(491.5 1366.98)">
<stop stop-color="#2898FF" stop-opacity="0"/>
<stop offset="1" stop-color="#2898FF"/>
</radialGradient>
</defs>
</svg>
