<svg xmlns="http://www.w3.org/2000/svg" width="783" height="478" fill="none"><path fill="url(#a)" fill-rule="evenodd" d="M108.775.201c-1.629 22.654-11.882 40.65-11.596 64.576.572 47.854 42.654 73.319 29.915 129.107-10.953 47.915-95.091 107.856-96.46 140.454-.27 6.753 17.54 24.057 23.043 24.472 4.298.288 54.362-32.63 70.964-26.12-39.496-48.43-17.54-85.05 27.915-118.419 16.376-12.047 8.277-.573 5.907 8.179-4.716 17.767-30.229 111.669 15.59 82.904 45.818-28.764 17.438-85.078 19.219-126.607.621-14.012 13.074-84.99 20.475-90.684 11.915-9.253 10.167 4.192 11.126 11.268 8.153 60.957 25.43 70.929 38.746 117.037s.003 91.062-30.137 125.21c-14.263 16.198-35.405 21.798-40.544 28.172-8.371 10.331-11.145 35.847-22.982 52.492-10.527 14.78-27.906 20.456-38.595 34.628 50.665 30.617 66.961 9.557 85.81-16.184-9.516-21.025-16.338-38.793-16.734-45.493-1.667-28.366 25.733-43.281 51.565-38.34 18.213 3.508 24.176 29.659 29.897 43.72 1.963 4.788 2.731 13.691 9.567 5.631 11.946-14.048-15.154-107.792 8.381-143.759-4.866-4.49-10.321-8.724-9.136-11.162l15.307-12.058-12.72-10.465 12.423-6.334c2.317-15.104-10.323-16.376-13.7-29.512l14.318.363-16.67-23.76 15.659 4.771-18.011-28.168 30.44-9.488-.164.244c6.766 10.486-8.505 14.041-8.242 20.232.843 19.377 12.408 11.336 13.289 12.025 3.172 2.438-19.409 25.21 4.294 29.934-26.841 20.528-6.425 16.963-5.533 30.391.458 6.752-15.274 9.274-7.587 21.3 2.605-1.031 5.474-1.738 8.633-2.083 19.136-2.09 30.562 2.606 37.244 11.315.545-.653 1.259-1.298 2.166-1.928 8.42-5.858 8.897 6.204 13.808 7.617 4.024 1.158 11.653-9.183 19.005-1.002 2.122 7.446-32.113 14.015-15.608 26.582.879.69 10.457-10.45 16.048-9.78 5.979 10.249-5.514 13.687-8.112 19.564-13.338 30.122 14.669 5.901 16.147 6.84 3.624 2.354 2.482 7.442.283 12.958 7.852-1.078 17.29 1.135 29.292 7.857-.717-1.225-1.11-2.985-1.039-5.532 11.697-1.668 16.694-8.438 23.431-17.005 4.999 12.824-5.133 18.54 3.943 30.19 13.81 17.652 8.64.347 22.923-4.733 4.365 15.289-10.603 24.54 2.064 37.965 27.97-21.99 5.672 14.254 7.263 24.183 2.118 13.383 18.833-4.23 17.132 9.137-1.451 11.215-22.591 7.863-20.58 25.912 1.583 14.13 16.862-6.317 17.631 11.25-5.049 8.476-38.855 3.136-21.035 20.022 1.411 1.345 11.181-4.932 10.323 7.448-9.216 3.089-18.448 3.361-24.797 10.465h-7.917a9 9 0 0 0 .847-3.476c.135-3.17-1.272-7.861-2.946-12.531-1.946 4.846-4.304 10.313-6.887 16.007H0V191.29c5.73-3.499 11.447-7.237 16.835-11.803 16.995-14.408 19.52-27.084 29.492-43.246 3.494-5.662 6.895 4.258 11.911 4.919 3.238-16.058-9.907-29.586-10.75-45.316C45.083 47.83 81.617 32.424 108.774.2m328.251 331.141c36.758 24.826-7.201 61.608-2.081 80.111 1.211 4.411 30.392 1.791 30.476 33.088.002.8-.191 1.942-.548 3.373 3.656 3.658 7.388 7.212 10.103 1.711.997-2.049-13.137-18.105-12.345-25.06l17.853 3.991c10.777-11.902-4.967-19.301-6.588-29.171l12.44-6.436c-8.164-9.279-37.951-7.523-14.344-19.562 17.001-8.678-17.442-16.76-18.6-18.042-3.372-3.872-.179-14.375-4.053-20.213-2.766-4.202-8.198-3.057-12.313-3.79m-68.573-30.928c-.303 19.184-3.2 40.036-1.438 55.77.491-.461 1.027-.813 1.615-1.026 5.592-9.629 10.857-18.24 16.895-24.46-4.378-8.365-8.091-15.997-12.481-24.436-1.106-2.137-2.764-4.013-4.591-5.848m-2.145-25.646a67 67 0 0 1 1.088 5.649l3.289-1.024c.448-.72-1.727-2.398-4.377-4.625" clip-rule="evenodd"/><path fill="url(#b)" d="M599.066 316.572c7.017-1.482 7.874-27.267 17.337-14.854-3.078 24.628-29.531 36.797-13.557 63.259 10.429-7.265 15.24-18.828 22.321-27.844 4.028-5.18 6.895-16.224 13.987-6.712 3.557 23.348-57.372 52.967-54.985 67.314 3.222 19.507 32.891-8.918 36.626-11.959 16.935-13.715 8.538 15.081-5.908 25.875-9.409 7.053-19.585-1.014-27.602 9.894-12.827 17.427-4.163 34.865 7.322 50.347 18.934-9.968 30.441-28.18 45.886-40.868 7.059-5.782 20.58-6.31 25.26-13.021 1.601-2.327-5.554-39.546 1.054-55.667 3.97-9.706 31.701-54.781 44.227-37.961l-34.605 42.675 25.546-.48c-10.666 13.865-40.505 28.906-18.579 45.563 24.713-10.748 23.013-56.538 39.065-66.843 22.586-14.493-10.827 46.526-5.718 48.474 34.081 6.743 29.179-19.201 44.28-36.377 5.013-5.682 11.065-5.108 11.211 1.421l.065-.001c.019 1.685-10.765 28.836-12.176 31.028-16.24 25.7-32.59 12.535-52.681 22.07-11.253 5.371-18.075 14.642-28.525 20.289-16.93 9.124-36.92 6.435-49.165 29.413 2.844 7.388 22.737 2.448 22.44 9.308-.17 3.792-1.65 5.975-3.894 7.085h-11.732c-6.826-1.635-13.833-4.794-16.294-4.812-5.503-.023-10.771 1.816-15.693 4.812h-28.67c2.181-11.359-.274-21.631-11.776-28.532-13.535-8.106-59.473 8.511-59.316-1.807 29.42-17.879 12.656-10.763 7.723-34.119-2.552-12.081 5.17-28.578 2.681-35.745-5.246-15.235-42.164-18.695-24.618-39.794 3.77 4.784 21.784 23.093 27.37 17.208 1.072-1.12-3.876-38.346 9.233-25.934 9.29 8.795-3.411 43.713 3.875 48.306 16.119 10.129 20.681-41.201 28.458-23.101 12.028 28.018-21.579 33.425-28.027 39.423-24.118 22.378 25.27 58.504 38.981 35.113 6.073-10.389 4.576-27.566 7.338-39.288 1.547-6.655 8.824-12.797 10.497-19.584 2.649-10.491-5.278-50.577-3.697-64.606z"/><path fill="url(#c)" d="M674.352 447.957c6.773-.412 5.309 15.483 3.506 30.043h-12.16c.739-13.643 1.54-29.645 8.654-30.043"/><path fill="url(#d)" d="M726.83 445.227c6.198-5.606 39.351-21.546 44.721-16.725 12.647 11.322-35.831 21.613-39.957 26.697-3.669 4.536-5.035 14.082-7.106 22.801h-15.075c4.573-11.097 7.529-23.869 17.417-32.773"/><path fill="url(#e)" d="M776.965 472.06c4.734-.083 6.129 2.62 5.186 5.94h-17.315c6.188-3.324 11.344-5.927 12.129-5.94"/><defs><radialGradient id="a" cx="0" cy="0" r="1" gradientTransform="matrix(0 491.5 -1366.98 0 952.5 -.5)" gradientUnits="userSpaceOnUse"><stop stop-color="#2898FF" stop-opacity="0"/><stop offset="1" stop-color="#2898FF"/></radialGradient><radialGradient id="b" cx="0" cy="0" r="1" gradientTransform="matrix(0 491.5 -1366.98 0 952.5 -.5)" gradientUnits="userSpaceOnUse"><stop stop-color="#2898FF" stop-opacity="0"/><stop offset="1" stop-color="#2898FF"/></radialGradient><radialGradient id="c" cx="0" cy="0" r="1" gradientTransform="matrix(0 491.5 -1366.98 0 952.5 -.5)" gradientUnits="userSpaceOnUse"><stop stop-color="#2898FF" stop-opacity="0"/><stop offset="1" stop-color="#2898FF"/></radialGradient><radialGradient id="d" cx="0" cy="0" r="1" gradientTransform="matrix(0 491.5 -1366.98 0 952.5 -.5)" gradientUnits="userSpaceOnUse"><stop stop-color="#2898FF" stop-opacity="0"/><stop offset="1" stop-color="#2898FF"/></radialGradient><radialGradient id="e" cx="0" cy="0" r="1" gradientTransform="matrix(0 491.5 -1366.98 0 952.5 -.5)" gradientUnits="userSpaceOnUse"><stop stop-color="#2898FF" stop-opacity="0"/><stop offset="1" stop-color="#2898FF"/></radialGradient></defs></svg>