<svg xmlns="http://www.w3.org/2000/svg" width="623" height="573" fill="none"><path fill="url(#a)" d="M38.286 565.229c7.383-1.441 12.847 3.639 19.033 7.771H42.261c-1.423-2.304-2.753-4.881-3.975-7.771"/><path fill="url(#b)" d="M148.117 277.337c2.55-5.816 46.668-27.039 54.499-20.635l.066-.159c1.627 1.329 7.186 35.546 7.723 41.984 2.936 36.036-5.336 65.296-2.124 103.375 1.691 19.703-11.806 19.637 9.232 44.89 3.168 3.8 12.552 1.851 17.926 12.164 10.043 19.258-2.702 33.464-1.5 42.523.823 6.242 11.867 8.031 14.643 13.44 6.719 12.94 1.676 35.457-4.174 58.081h-48.72c-7.083-5.146-13.804-10.863-18.005-18.494-7.073-12.85.275-22.12-5.215-30.2-6.558-9.72-20.783-15.19-28.803-27.059-1.225 9.556-6.002 19.313-5.894 25.773.121 7.291 4.229 14.453 3.355 23.192-.76 7.67-8.743 15.913-8.384 21.915.083 1.416.334 3.059.706 4.873h-10.01c-2.72-4.02-5.595-7.601-8.18-10.4-23.912-25.932-32.268-4.996-53.588-8.66-15.814-2.702-23.41-28.931-42.35-25.889-1.754-5.759 11.141-6.133 14.54-5.96 17.517.88 26.876 27.171 47.003 15.864.876-1.375-23.19-18.828-25.876-19.935-6.851-2.791-20.532-.871-25.204-5.452-7.392-7.259-4.415-16.938-7.812-24.388-2.508-5.515-8.705-8.749-11.36-16.968-4.394-13.69 4.19-33.242-9.967-44.85 18.354-1.83 16.633 23.324 20.841 34.94 2.699 7.44 8.031 12.984 10.385 19.699 4.606 13.143-4.39 29.412 18.11 27.16-10.349-10.85-6.02-25.715-10.654-38.526-2.375-6.531-7.977-11.361-10.19-19.887s1.747-15.6.296-20.589c-1.741-5.969-9.394-11.344-11.332-19.178-3.318-13.435 9.575-28.451-2.447-49.902-2.771-4.949.737-6.018 3.25-4.907l-.115-.076c3.821 1.692 12.107 23.649 13.307 28.994 1.949 8.681-1.726 19.582.77 26.128s11.025 8.991 13.059 21.427c.873 5.404-2.561 9.791-2.213 14.125 1.94 25.174 3.581 51.954 21.133 71.571l6.845-34.676c-.31-8.72-11.847-13.27-13.788-25.769-.788-5.083 3.822-15.15 5.159-21.358.899-4.171-.713-13.62-.346-14.223 2.183-3.903 5.136-2.043 6.584 2.038 3.713 10.299.26 23.056 3.218 31.634 2.41 6.958 11.492 9.819 13.586 19.563 3.748 17.269-9.83 24.141-10.751 33.807-1.622 17.344 13.035 28.067 27.114 33.483-2.138-8.231-.726-16.843-.455-25.157.139-4.188-5.186-6.684 3.169-8.078 11.966 18.596-3.274 35.991 14.995 50.271l7.753-25.412c-13.552-21.1 3.885-38.354 4.538-56.138.217-5.683-6.316-25.403 3.433-13.954 1.727 2.024 3.093 4.083 4.172 6.188 1.18-4.036 2.28-7.75 1.448-10.693-1.277-4.527-10.971-10.584-14.218-17.615-14.459-31.52 3.574-30.719 4.581-44.69.8-11.254-10.452-24.539-6.274-44.714 2.895-13.934 15.244-20.081 18.366-32.029 3.361-12.968-.621-31.646 4.144-42.482"/><path fill="url(#c)" d="M157.896 567.141c2.158-3.484 5.88 1.119 7.088 3.38.441.83.829 1.657 1.173 2.479h-8.38c.259-1.98.331-3.942.119-5.859"/><path fill="url(#d)" fill-rule="evenodd" d="M570.632.795c5.663 22.882 30.253 61.85 30.147 83.608-.135 23.653-23.194 55.156-24.429 80.285-2.228 45.494 40.238 69.183 25.251 136.697-3.289 14.761-17.412 25.736-20.588 36.825-2.98 10.444-2.961 18.8-1.243 26.055 2.838-3.183 6.431-7.668 10.93-13.385 1.004 9.569-2.131 16.9-7.535 22.942 1.197 2.55 2.564 5 4.023 7.41 3.302-4.733 8.11-8.975 15.513-12.292 9.706 3.629 3.351 5.975-.274 10.011-1.306 1.431-6.033 5.213-10.483 9.741 2.375 3.644 4.764 7.345 6.889 11.318 6.807-7.859 14.052-18.337 15.574-21.481 6.661 6.1-2.1 17.538-12.38 28.258 1.499 3.712 2.689 7.709 3.392 12.128.603 3.794.993 7.288 1.219 10.525 1.212-4.489 2.495-9.98 6.242-14.814.844-1.091 5.605-5.312 10.12-9.023v10.464c-4.36 4.562-7.559 9.295-4.01 13.372a58 58 0 0 1 4.01-5.15v76.923c-1.49-4.081-3.079-8.02-4.592-11.945-2.727 1.672-5.728 3.577-9.241 4.501 3.141 5.33 7.604 11.492 13.833 18.913V573h-24.663c-.104-4.764-.632-9.793-1.792-15.282-1.131-5.352-3.044-10.258-5.439-14.826-3.428-.413-7.854-.639-12.789-.609 5.62 9.521 8.112 19.925 9.003 30.717h-26.904c-2.617-5.786-5.48-11.425-9.412-15.938-2.629-3.018-6.296-6.014-10.484-9.025-8.443 3.163-14.527 7.825-15.07 14.454-.125 1.494 15.879.917 17.451 10.509h-7.052c-6.652-2.46-14.18-2.407-20.536 0h-12.528c11.334-8.465 19.233-20.274 26.99-32.205-4.138-2.693-8.363-5.42-12.324-8.201-18.375 12.261-39.515 12.029-28.718 40.406h-8.53c-4.34-2.747-9.649-3.653-14.906-.851a5.3 5.3 0 0 0-1.142.851h-9.408c19.039-37.375-40.957-21.091-51.647 0h-51.609c-9.491-6.395-29.508-9.987-35.697-3.157-.443.484-.711 1.638-.952 3.157h-65.615c2.536-16.756 7.398-50.333 10.234-63.357 1.685-7.96 11.605-13.422 11.601-20.474-.01-9.841-15.929-24.253-17.227-36.326-1.897-16.985 11.344-21.368 11.381-29.675.04-13.336-21.655-43.45-20.435-68.775s23.285-27.109 23.889-30.779c2.535-15.602-20.66-44.467-.08-75.065 2.309-3.374 11.139-2.305 11.47-5.942 1.089-14.347 2.918-74.011 8.794-83.832 4.085-6.843 15.435-6.945 18.372-10.761 15.706-20.482 2.987-45.744 45.354-73.773 51.074-33.857 9.292 76.819 6.034 94.825-10.606 58.599-26.44 139.806-23.156 198.283.292 5.142 3.231 9.68 5.66 14.909 10.314-2.28 20.345 12.175 25.01 21.499 9.939-13.177 5.708-26.562-5.057-37.896l17.491 7.642 8.96-20.336c9.851 15.573-2.608 19.396-5.935 28.653-8.033 22.373-7.607 40.904 21.604 36.654l-2.958-16.595 25.49 5.131c-2.974-8.289-4.205-17.828-8.144-25.727-4.656-9.386-36.489-35.934-16.697-41.18l-.213.154c13.581 39.084 25.066 31.659 19.878-6.239 23.37 3.6-4.522 35.675 8.764 49.995-.569-12.338 11.523-13.675 14.72-22.364 3.922-10.717-6.052-27.261 4.156-36.306 19.477 28.581-16.667 52.135-12.45 72.419.869 4.251 8.539 19.367 10.629 20.38 9.919 4.747 3.569-18.951 13.317-12.919 2.188 1.333.102 35.321 11.764 31.309 18.332-6.325-13.374-47.757-7.183-59.142 4.621-8.498 6.564-4.29 7.459 1.546.252-10.29 3.684-18.157 8.87-25.19-10.154-8.428-18.544-18.115-15.261-29.393 14.678-7.77 8.012 11.275 10.758 16.694 1.082 2.14 6.302 2.866 11.304 4.738 9.952-10.404 22.843-20.285 33.127-35.796.874 5.016.775 9.8.066 14.444.895.08 1.572.571 1.694 1.763l-6.315 21.746 12.192-8.05c10.367-20.157 31.421-38.675 35.045-61.156 8.77-54.119-33.003-74.926-32.505-114.936.499-36.278 28.34-39.229 34.332-63.823 8.716-35.805-14.921-70.28 5.602-99.182M434.737 478.93c-10.572-5.465-30.378 13.619-39.985 16.547-9.607 2.927-55.713-2.057-48.791 16.851 4.651 12.77 17.571 15.697-3.554 26.368-5.59-.397 2.027-8.541 1.952-12.47-.165-7.865-4.061-10.236-9.932-9.897-1.794 6.874-7.745 18.027-13.989 30.115 13.969 8.339 28.312 25.734 51.25 24.915 20.222-.725 50.778-19.714 24.895-22.306-7.158-.696-31.505 9.8-26.786-5.823 10.397 1.919 21.872-4.405 31.458-3.154 6.015.791 12.33 9.217 18.791 8.771 9.81-.708 21.943-18.482 39.043-5.316 4.827 3.712 15.055 28.169 19.323 14.049 9.154-30.19-14.56-26.128-31.414-38.493 11.923-3.303 24.519.121 34.572 6.584 4.868-1.397 6.205-36.554-5.6-40.096-1.473-.416-29.256.004-30.608.692-11.258 6.037-7.156 21.833-12.277 30.336-8.259 13.703-34.245 16.018-48.563 10.938l27.066-10.69-24.646-9.745c10.569-9.422 35.773 10.643 40.457 4.825-6.089-7.839 13.474-29.833 7.338-33.001m-117.28 73.326a397 397 0 0 0-4.372 8.862l7.16-2.246c-.04-3.324-1.101-5.4-2.788-6.616m263.938-23.918q-.432.721-.833 1.527c-2.945 5.94.537 5.731 5.938 5.386a116 116 0 0 0-5.105-6.913m-84.022-24.306c-4.794 8.829-8.239 18.49-2.26 30.564 7.911-.181 10.596-5.163 11.741-10.406-4.083-3.84-7.106-7.817-8.26-11.986-.752-2.74-1.124-5.461-1.221-8.172m59.385-10.454c-4.648 2.034-9.8 5.26-15.709 10.174q-.708.591-1.351 1.235c1.868 3.714 4.97 7.075 8.604 10.213 2.994-3.29 6.222-6.35 9.796-9.07 8.222 7.894 4.359 11.479-1.915 15.172 4.661 3.355 9.392 6.537 13.101 9.745 2.932-2.298 5.689-4.83 8.358-7.28-8.714-10.329-17.61-19.323-20.578-29.134a52 52 0 0 1-.306-1.055m-208.844-.66c-3.801-4.062-9.025-4.965-14.777-4.73 1.062 5.195 1.875 10.432 2.146 15.424 4.895-3.448 9.313-7.564 12.631-10.694m213.122-56.468c-12.77 11.534-15.116 40.287-23.493 55.548a30 30 0 0 0-.098 2.763c6.435-2.525 12.209-5.35 17.951-7.88-2.37-18.261 6.479-32.991 5.64-50.431m-236.117 12.041q-.094.623-.145 1.232c-.452 5.257 2.865 15.877 5.907 27.881 19.789-5.911 32.44 21.604 59.258 10.951-2.379-21.081-12.923-14.697-27.738-19.841l14.597-8.885c-16.521-13.26-30.836-3.453-50.691-10.88a85 85 0 0 1-1.188-.458m159.571-28.73c.105 3.446.205 7.109-.421 10.087-1.192 5.6-6.496 10.954-6.381 16.714.218 13.459 9.988 29.761 12.416 43.492 13.807-1.26 7.814-15.014 12.346-23.595q.534.65 1.009 1.292c.652-5.188.733-10.515-.366-16.049-2.084-10.488-11.236-21.06-18.603-31.941m126.933 34.273c-1.381 2.898-4.237 4.757-7.452 6.327-1.724 8.697-2.831 15.841 1.432 26.007 3.211-1.199 6.625-3.121 9.967-5.475-2.724-8.237-4.568-16.807-3.947-26.859m-267.878-50.83c-.968 4.712-2.681 9.345-4.694 13.84 2.018 1.912 3.546 3.92 4.234 5.715 2.164 5.645-5.096 12.975-2.688 17.577 2.41 4.601 27.045 1.568 37.935 10.052 20.076 15.657 10.695 41.703 49.978 21.731-.523-23.947-18.094-16.412-26.848-31.099.642-1.167 22.536 6.541 26.175.568 1.479-2.397-10.042-13.932 4.236-14.505 1.792 21.572-4.668 47.096 24.574 51.444 42.21 6.295-4.963-67.481-30.483-62.941-11.359 2.028-17.03 12.987-32.87 12.996-20.823-.013-29.588-25.418-49.549-25.378m198.381-3.277c-8.839 5.323-16.05 11.272-18.527 19.426 7.751 11.052 15.667 23.165 18.341 40.838 1.49-4.093.749-10.422 2.154-15.436.908-3.271 7.684-5.662 7.473-10.031-.436-8.647-7.662-19.906-8.949-29.207l17.626 23.403c-2.196-9.368-10.109-18.981-18.118-28.993m71.935 39.848c-2.386 1.194-4.785 2.296-7.213 3.229a97 97 0 0 1-1.022 8.568c2.06-.618 4.149-1.235 6.212-1.882.324-2.519.8-5.134 1.456-7.859q.251-1.044.567-2.056m-279.596-13.382c-2.398 4.625-4.769 9.039-6.551 13.164q1.101.89 2.249 1.858c4.176-6.992 5.306-11.602 4.302-15.022m188.842-72.606c-4.062.572-8.367.701-12.452.684q-.314.846-.618 1.696l15.473 37.09c-3.646-.127-9.778 1.103-16.193 3.119 2.776 6.631 6.798 12.606 11.098 18.733 3.441-5.329 7.057-12.704 13.224-19.265a37 37 0 0 1 2.904-2.771c-7.046-9.258-13.12-18.875-14.014-28.968-.31-3.527-.079-6.959.578-10.318m-178.95 38.1c.159 1.168.244 2.384.233 3.655a37 37 0 0 1-.171 3.214l4.367-2.669zm161.55-17.393a46 46 0 0 0 .362 10.468c1.233-2.086 1.832-4.26 1.534-6.375-.187-1.32-.855-2.683-1.896-4.093" clip-rule="evenodd"/><path fill="url(#e)" d="M623 337.659c-3.528-8.366-2.426-15.6 0-22.933z"/><defs><radialGradient id="a" cx="0" cy="0" r="1" gradientTransform="matrix(0 491.5 -1366.98 0 -329.5 94.5)" gradientUnits="userSpaceOnUse"><stop stop-color="#2898FF" stop-opacity="0"/><stop offset="1" stop-color="#2898FF"/></radialGradient><radialGradient id="b" cx="0" cy="0" r="1" gradientTransform="matrix(0 491.5 -1366.98 0 -329.5 94.5)" gradientUnits="userSpaceOnUse"><stop stop-color="#2898FF" stop-opacity="0"/><stop offset="1" stop-color="#2898FF"/></radialGradient><radialGradient id="c" cx="0" cy="0" r="1" gradientTransform="matrix(0 491.5 -1366.98 0 -329.5 94.5)" gradientUnits="userSpaceOnUse"><stop stop-color="#2898FF" stop-opacity="0"/><stop offset="1" stop-color="#2898FF"/></radialGradient><radialGradient id="d" cx="0" cy="0" r="1" gradientTransform="matrix(0 491.5 -1366.98 0 -329.5 94.5)" gradientUnits="userSpaceOnUse"><stop stop-color="#2898FF" stop-opacity="0"/><stop offset="1" stop-color="#2898FF"/></radialGradient><radialGradient id="e" cx="0" cy="0" r="1" gradientTransform="matrix(0 491.5 -1366.98 0 -329.5 94.5)" gradientUnits="userSpaceOnUse"><stop stop-color="#2898FF" stop-opacity="0"/><stop offset="1" stop-color="#2898FF"/></radialGradient></defs></svg>